<svg width="220" height="300" viewBox="0 0 220 300" fill="none" xmlns="http://www.w3.org/2000/svg">
<path d="M0 101.961C0 45.6495 45.6495 0 101.961 0H109.039C165.351 0 211 45.6495 211 101.961V275C211 282.732 204.732 289 197 289H14C6.26801 289 0 282.732 0 275V101.961Z" fill="url(#paint0_linear_168_756)"/>
<g clip-path="url(#clip0_168_756)">
<path d="M104.281 98.3876C101.392 97.66 98.4756 97.3361 95.641 97.4025C99.5019 93.961 102.35 89.3991 103.651 84.2306C107.185 70.1993 98.6535 55.9147 84.6329 52.3836C70.6123 48.8525 56.3291 57.3911 52.7953 71.4225C52.7736 71.5086 52.7511 71.5979 52.7294 71.6841C49.8768 69.466 46.5836 67.8529 43.0441 66.9615C29.0236 63.4304 14.7428 71.973 11.2098 86.0011C9.43403 93.0519 10.6637 100.354 14.4026 106.324C21.7165 101.842 32.4831 101.934 39.8483 105.434C43.0165 106.925 45.8456 108.981 48.1586 111.429C48.879 112.191 48.844 113.393 48.0834 114.111C47.4602 114.7 46.5469 114.786 45.8386 114.38C43.196 112.863 40.5138 111.624 37.775 110.785C27.6656 107.693 13.4686 109.386 8.77864 119.835C4.84074 128.605 7.06598 139.225 14.1967 145.662C20.9151 151.73 30.4806 153.091 38.4956 149.42C38.6557 154.641 40.3266 159.747 43.342 164.093C47.0787 169.478 52.6376 173.325 58.999 174.927C68.3673 177.286 79.4335 173.295 86.1573 166.604C95.7153 157.09 93.506 147.308 86.4387 137.253C85.1271 135.352 83.6541 133.567 81.9657 131.883C80.2813 130.183 78.3445 128.677 76.1853 127.071C75.7727 126.798 75.9766 126.109 76.4774 126.114C84.8821 126.011 92.208 132.158 95.749 139.493C109.151 142.115 121.868 135.917 124.58 125.149C127.292 114.382 118.303 101.909 104.28 98.3772L104.281 98.3876ZM83.6303 105.764C73.7254 110.167 60.718 107.325 54.3441 98.3404C53.2782 96.8506 52.4175 95.2326 51.8137 93.5233C51.218 91.8092 50.8161 90.0523 50.897 88.1693C50.9187 87.6388 51.6122 87.4165 51.9368 87.8375C57.1353 93.3436 62.5661 98.6944 69.7261 101.407C74.1341 103.172 78.8263 103.862 83.4896 104.68C84.0374 104.753 84.1483 105.552 83.6303 105.764Z" fill="white" fill-opacity="0.55"/>
<path d="M74.2066 176.022H80.8093C80.8093 179.646 77.8258 182.625 74.2066 182.625C70.5875 182.625 67.6722 179.72 67.6039 176.148L74.2066 176.022Z" fill="white"/>
<path d="M149.424 290L169 271H92.2L41 292L149.424 290Z" fill="#3C36A4" fill-opacity="0.64"/>
<path d="M177.539 173.369L93.3793 273.082" stroke="#1A0E3D" stroke-width="6.8286" stroke-miterlimit="10"/>
<path d="M74.8895 173.889L166.393 272.526" stroke="#1A0E3D" stroke-width="6.8286" stroke-miterlimit="10"/>
<path d="M90.1278 131.069L30.3986 145.293V150.94H41.6815L98.695 136.474L98.59 130.48L90.1278 131.069Z" fill="#1A0E3D"/>
<path d="M98.5899 130.48L39.9796 145.293L30.2777 145.414L91.068 129.777L98.5899 130.48Z" fill="#5251E9"/>
<path d="M180.197 168.379V173.747L148.292 187.09L36.6178 185.761L37.0275 180.65L180.197 168.379Z" fill="#1A0E3D"/>
<path d="M173.037 168.584H177.944V72.453C177.944 71.0978 176.846 70 175.491 70C174.135 70 173.037 71.0978 173.037 72.453V168.579V168.584Z" fill="#1A0E3D"/>
<path d="M85.2952 168.584H90.2012V72.453C90.2012 71.0978 89.1034 70 87.7482 70C86.393 70 85.2952 71.0978 85.2952 72.453V168.579V168.584Z" fill="#1A0E3D"/>
<path d="M77.1219 76.96V121.74H180.349L184.263 118.215L184.415 79.4078L180.197 76.96H77.1219Z" fill="#5251E9"/>
<path d="M180.192 76.96V121.745H183.338C185.329 121.745 186.942 120.132 186.942 118.142V80.5634C186.942 78.5726 185.329 76.96 183.338 76.96H180.192Z" fill="#1A0E3D"/>
<path d="M180.197 168.379L83.4567 167.56L37.0275 180.649L148.292 181.059L180.197 168.379Z" fill="#5251E9"/>
<path d="M184.084 129.619L132.134 141.994V146.9L141.694 148.282L191.448 134.835V129.109L184.084 129.619Z" fill="#1A0E3D"/>
<path d="M191.448 129.109L140.623 143.066L132.029 142.094L184.903 128.495L191.448 129.109Z" fill="#5251E9"/>
<path d="M147.235 183.975L63.0747 283.688" stroke="#1A0E3D" stroke-width="6.8286" stroke-miterlimit="10"/>
<path d="M42.585 181.49L122.086 282.29" stroke="#1A0E3D" stroke-width="6.8286" stroke-miterlimit="10"/>
<path d="M73.1876 295.312C73.1876 295.312 64.4627 300.392 51.9244 300.145C44.9277 300.019 36.7544 298.238 28.2344 293.012L46.2934 197.726H56.2789L73.1876 295.317V295.312Z" fill="#FC7F2D"/>
<path opacity="0.15" d="M51.9244 300.145C44.9277 300.019 36.7544 298.238 28.2344 293.012L46.2934 197.726H49.734L49.7445 198.02L51.9244 300.145Z" fill="#1A0E3D"/>
<path d="M42.0649 233.461L38.1779 233.524C33.6027 233.598 29.805 237.08 29.3427 241.634L28.4077 250.774C27.893 255.817 31.6329 260.297 36.6861 260.691L39.7642 260.933" stroke="#1A0E3D" stroke-width="2.62638" stroke-linecap="square" stroke-linejoin="bevel"/>
<path d="M28.8069 289.361C28.8069 289.361 39.3702 295.89 51.6669 295.89C63.9637 295.89 72.221 291.278 72.221 291.278" stroke="#1A0E3D" stroke-width="2.62638" stroke-linecap="square" stroke-linejoin="bevel"/>
<path d="M89 181L100.586 173L119.729 173.667L120.233 178.333L129.805 175.667L156 176.333L147.94 183L89 181Z" fill="#1A0E3D" fill-opacity="0.4"/>
<path d="M104.438 105.328C102.328 105.328 100.488 104.973 98.918 104.262C97.3555 103.543 96.1445 102.527 95.2852 101.215C94.4258 99.8945 93.9961 98.3398 93.9961 96.5508V96.5273C93.9961 94.7383 94.4258 93.1875 95.2852 91.875C96.1445 90.5625 97.3555 89.5469 98.918 88.8281C100.488 88.1094 102.328 87.75 104.438 87.75C106.555 87.75 108.395 88.1094 109.957 88.8281C111.52 89.5469 112.73 90.5625 113.59 91.875C114.457 93.1875 114.891 94.7383 114.891 96.5273V96.5508C114.891 98.3398 114.457 99.8945 113.59 101.215C112.73 102.527 111.52 103.543 109.957 104.262C108.395 104.973 106.555 105.328 104.438 105.328ZM104.438 102.246C105.758 102.246 106.902 102.016 107.871 101.555C108.848 101.086 109.602 100.426 110.133 99.5742C110.672 98.7148 110.941 97.707 110.941 96.5508V96.5273C110.941 95.3711 110.672 94.3672 110.133 93.5156C109.602 92.6641 108.848 92.0078 107.871 91.5469C106.902 91.0781 105.758 90.8438 104.438 90.8438C103.125 90.8438 101.98 91.0781 101.004 91.5469C100.027 92.0078 99.2695 92.6641 98.7305 93.5156C98.1992 94.3594 97.9336 95.3633 97.9336 96.5273V96.5508C97.9336 97.707 98.1992 98.7148 98.7305 99.5742C99.2695 100.426 100.023 101.086 100.992 101.555C101.969 102.016 103.117 102.246 104.438 102.246ZM116.732 109.125V92.4492H120.47V94.7812H120.54C120.86 94.2578 121.278 93.8008 121.794 93.4102C122.317 93.0195 122.931 92.7148 123.634 92.4961C124.345 92.2773 125.142 92.168 126.024 92.168C127.384 92.168 128.567 92.4414 129.575 92.9883C130.583 93.5352 131.36 94.3008 131.907 95.2852C132.462 96.2695 132.739 97.4141 132.739 98.7188V98.7305C132.739 100.035 132.462 101.18 131.907 102.164C131.36 103.148 130.583 103.918 129.575 104.473C128.575 105.02 127.396 105.293 126.036 105.293C125.153 105.293 124.357 105.184 123.646 104.965C122.935 104.746 122.317 104.441 121.794 104.051C121.278 103.66 120.86 103.207 120.54 102.691H120.47V109.125H116.732ZM124.735 102.539C125.61 102.539 126.36 102.387 126.985 102.082C127.618 101.77 128.103 101.332 128.439 100.77C128.774 100.199 128.942 99.5195 128.942 98.7305V98.7188C128.942 97.9297 128.774 97.25 128.439 96.6797C128.103 96.1094 127.618 95.6758 126.985 95.3789C126.353 95.0742 125.603 94.9219 124.735 94.9219C123.868 94.9219 123.114 95.0781 122.474 95.3906C121.833 95.6953 121.337 96.1328 120.985 96.7031C120.634 97.2734 120.458 97.9453 120.458 98.7188V98.7305C120.458 99.5039 120.634 100.176 120.985 100.746C121.337 101.316 121.833 101.758 122.474 102.07C123.114 102.383 123.868 102.539 124.735 102.539ZM141.236 105.293C139.721 105.293 138.428 105.137 137.358 104.824C136.287 104.512 135.451 104.062 134.85 103.477C134.248 102.883 133.897 102.176 133.795 101.355L133.783 101.25L137.451 101.262L137.463 101.344C137.604 101.875 137.99 102.273 138.623 102.539C139.264 102.797 140.151 102.926 141.283 102.926C141.955 102.926 142.522 102.867 142.983 102.75C143.443 102.633 143.795 102.465 144.037 102.246C144.279 102.027 144.401 101.762 144.401 101.449V101.438C144.401 101.055 144.236 100.766 143.908 100.57C143.588 100.375 143.018 100.23 142.197 100.137L138.764 99.7969C137.74 99.6797 136.889 99.4688 136.209 99.1641C135.529 98.8516 135.018 98.4492 134.674 97.957C134.338 97.457 134.17 96.8672 134.17 96.1875V96.1758C134.17 95.3398 134.432 94.6211 134.955 94.0195C135.486 93.418 136.244 92.957 137.229 92.6367C138.221 92.3164 139.401 92.1562 140.768 92.1562C142.213 92.1562 143.44 92.3164 144.447 92.6367C145.463 92.957 146.248 93.4102 146.803 93.9961C147.358 94.5742 147.666 95.2656 147.729 96.0703L147.74 96.1875H144.283L144.272 96.1172C144.186 95.625 143.842 95.2383 143.24 94.957C142.639 94.668 141.83 94.5234 140.815 94.5234C140.166 94.5234 139.619 94.582 139.174 94.6992C138.736 94.8164 138.401 94.9844 138.166 95.2031C137.94 95.4141 137.826 95.6758 137.826 95.9883V96C137.826 96.2422 137.897 96.4492 138.037 96.6211C138.186 96.793 138.42 96.9336 138.74 97.043C139.061 97.1445 139.486 97.2266 140.018 97.2891L143.51 97.6406C145.151 97.8125 146.33 98.1836 147.049 98.7539C147.776 99.3242 148.139 100.117 148.139 101.133V101.145C148.139 102.004 147.861 102.746 147.307 103.371C146.76 103.988 145.971 104.465 144.94 104.801C143.916 105.129 142.682 105.293 141.236 105.293ZM151.749 105.176C151.155 105.176 150.663 104.992 150.273 104.625C149.89 104.25 149.698 103.789 149.698 103.242C149.698 102.695 149.89 102.234 150.273 101.859C150.663 101.484 151.155 101.297 151.749 101.297C152.335 101.297 152.819 101.484 153.202 101.859C153.585 102.234 153.777 102.695 153.777 103.242C153.777 103.789 153.581 104.25 153.191 104.625C152.808 104.992 152.327 105.176 151.749 105.176ZM157.949 105.176C157.356 105.176 156.863 104.992 156.473 104.625C156.09 104.25 155.899 103.789 155.899 103.242C155.899 102.695 156.09 102.234 156.473 101.859C156.863 101.484 157.356 101.297 157.949 101.297C158.535 101.297 159.02 101.484 159.403 101.859C159.785 102.234 159.977 102.695 159.977 103.242C159.977 103.789 159.781 104.25 159.391 104.625C159.008 104.992 158.528 105.176 157.949 105.176ZM164.15 105.176C163.556 105.176 163.064 104.992 162.673 104.625C162.29 104.25 162.099 103.789 162.099 103.242C162.099 102.695 162.29 102.234 162.673 101.859C163.064 101.484 163.556 101.297 164.15 101.297C164.736 101.297 165.22 101.484 165.603 101.859C165.986 102.234 166.177 102.695 166.177 103.242C166.177 103.789 165.982 104.25 165.591 104.625C165.208 104.992 164.728 105.176 164.15 105.176Z" fill="white"/>
<path d="M98.9414 156.86L154.912 159.95L163.288 167.816L157.403 169.162L157.31 172.202C157.235 174.715 155.267 176.656 152.926 176.536L129.264 175.363L123.956 168.178L119.087 174.266L101.249 173.383C99.4905 173.294 98.1295 171.676 98.2296 169.794L98.9419 156.866L98.9414 156.86Z" fill="#FFEBE9"/>
<path d="M100.669 168.915L100.951 159.215L119.027 160.112L118.643 172.454L103.06 171.681C101.698 171.615 100.625 170.374 100.669 168.915Z" fill="#FF6666"/>
<path d="M130.233 173.027L128.881 160.599L151.096 161.701L150.811 170.949C150.757 172.663 149.423 173.983 147.823 173.903L130.233 173.033L130.233 173.027Z" fill="#006AE1"/>
</g>
<defs>
<linearGradient id="paint0_linear_168_756" x1="105.5" y1="0" x2="105.5" y2="289" gradientUnits="userSpaceOnUse">
<stop stop-color="#490374"/>
<stop offset="0.932292" stop-color="#FF91FF"/>
</linearGradient>
<clipPath id="clip0_168_756">
<rect width="220" height="256" fill="white" transform="translate(0 44)"/>
</clipPath>
</defs>
</svg>
