<svg width="570" height="306" viewBox="0 0 570 306" fill="none" xmlns="http://www.w3.org/2000/svg">
<g clip-path="url(#clip0_193_746)">
<path d="M3.33579 143.029H7.53468C15.0927 143.029 19.8281 139.317 20.8778 131.542L29.9988 66.288H16.4923L19.8281 42.7749H33.3346L34.3843 35.3521C37.2302 13.7886 50.5734 4.60417 72.3376 4.60417H83.7446L80.4088 28.1173H72.8508C65.1295 28.1173 60.5574 31.8287 59.3211 39.6038L58.9712 42.7749H78.4727L75.1369 66.288H55.6587L45.8146 137.203C43.1786 155.948 31.0718 166.542 7.88459 166.542H0L3.33579 143.029ZM94.2885 42.7984H119.925L107.282 132.975H81.6452L94.2885 42.7984ZM94.9883 14.5168C96.2247 6.20146 103.409 0.0236816 111.667 0.0236816C121.675 0.0236816 127.996 7.28199 126.76 17.1711C125.524 25.6509 118.339 31.6643 110.081 31.6643C100.074 31.6643 93.752 24.2415 94.9883 14.5168Z" fill="#E3CCD3" fill-opacity="0.62"/>
<path d="M125.967 112.281C131.939 109.979 137.56 107.16 142.996 103.965C135.624 89.6366 132.988 70.8918 135.788 49.6806C140.173 18.5568 155.989 3.52344 176.703 3.52344C199.704 3.52344 212.347 20.5065 208.125 49.6806C205.326 69.4824 195.132 88.5795 180.039 103.965C184.611 106.62 189.86 108.029 195.832 108.029H201.454L197.768 132.952H190.746C177.59 132.952 166.346 129.076 157.389 121.817C149.831 126.421 141.596 130.297 132.988 132.952L125.967 112.257V112.281ZM164.947 84.3514C173.904 73.3817 179.876 60.6503 181.812 47.2142C183.562 35.0231 180.949 28.4695 175.327 28.4695C169.705 28.4695 164.62 35.5399 162.497 50.3853C160.748 63.2812 161.634 74.979 164.947 84.3279V84.3514Z" fill="#E3CCD3" fill-opacity="0.62"/>
<path d="M225.037 42.7982H250.674L249.624 51.1135C256.996 44.2075 265.953 40.6841 276.147 40.6841C288.604 40.6841 297.562 45.9927 301.784 55.553C310.205 45.8283 321.262 40.6841 334.092 40.6841C353.757 40.6841 364.814 53.7678 361.828 76.9287L358.492 100.794C357.979 105.75 360.079 108.052 364.651 108.052H366.587L362.901 132.975H355.693C337.614 132.975 329.707 124.143 331.993 106.455L335.515 81.8615C336.915 71.9723 331.643 65.6066 321.985 65.6066C312.328 65.6066 305.47 71.4321 303.37 80.4521L295.999 132.975H270.362L277.57 81.885C278.97 71.9958 273.721 65.6301 264.064 65.6301C254.919 65.6301 247.735 71.2911 245.635 79.9588L238.077 132.999H212.441L225.084 42.8216L225.037 42.7982Z" fill="#E3CCD3" fill-opacity="0.62"/>
<path d="M20.3414 282.487H24.5403C32.0983 282.487 36.8338 278.775 37.8835 271L47.0044 205.746H33.498L36.8338 182.233H50.3402L51.3899 174.81C54.1892 153.247 67.5323 144.039 89.3199 144.039H100.727L97.3911 167.552H89.8331C82.1118 167.552 77.5397 171.263 76.3034 179.038L75.9535 182.209H95.455L92.1192 205.723H72.641L62.7969 276.638C60.1609 295.383 48.0541 305.976 24.8669 305.976H16.959L20.2948 282.463L20.3414 282.487ZM111.294 182.233H136.931L124.287 272.41H98.6508L111.294 182.233ZM111.994 153.951C113.23 145.636 120.415 139.458 128.673 139.458C138.68 139.458 145.002 146.716 143.766 156.606C142.529 165.085 135.344 171.099 127.087 171.099C117.079 171.099 110.758 163.676 111.994 153.951Z" fill="#E3CCD3" fill-opacity="0.62"/>
<path d="M157.715 182.233H183.352L182.115 190.901C190.023 183.83 199.681 180.119 210.388 180.119C231.289 180.119 243.046 193.555 239.874 217.256L236.724 240.252C236.025 245.209 238.124 247.511 242.883 247.511H244.632L241.133 272.433H233.925C215.846 272.433 207.752 263.601 210.225 245.913L213.56 223.105C214.96 212.135 209.175 205.065 198.444 205.065C187.714 205.065 180.529 211.243 177.916 220.803L170.708 272.433H145.072L157.715 182.256V182.233Z" fill="#E3CCD3" fill-opacity="0.62"/>
<path d="M254.873 223.786C258.559 197.619 278.41 180.119 301.224 180.119C313.867 180.119 323.525 184.535 330.033 192.145L336.518 145.119H362.155L348.975 240.252C348.462 245.209 350.561 247.511 355.133 247.511H356.883L353.36 272.433H346.152C334.395 272.433 326.837 268.722 323.851 261.111C316.13 269.591 306.286 274.547 295.066 274.547C267.843 274.547 250.814 252.631 254.85 223.81L254.873 223.786ZM324.924 228.742C326.861 215.142 318.253 205.041 304.56 205.041C292.803 205.041 282.796 213.873 281.373 225.548C279.436 239.336 288.231 249.601 301.924 249.601C313.331 249.601 323.338 240.581 324.924 228.742Z" fill="#E3CCD3" fill-opacity="0.62"/>
<path d="M368.36 223.786C372.046 197.266 393.996 180.119 419.82 180.119C449.492 180.119 468.97 200.273 464.771 227.85C464.421 230.316 463.885 233.346 463.022 235.625H394.72C396.656 246.054 404.19 252.42 415.621 252.42C423.692 252.42 430.2 248.897 433.886 243.94H461.272C454.064 262.145 436.685 274.524 413.685 274.524C383.662 274.524 364.348 252.608 368.383 223.786H368.36ZM396.632 218.477H438.785C437.385 208.588 429.827 202.223 418.956 202.223C408.949 202.223 400.528 208.588 396.656 218.477H396.632Z" fill="#E3CCD3" fill-opacity="0.62"/>
<path d="M487.468 202.223C482.896 198.159 480.447 192.31 481.497 185.944C482.733 176.924 489.754 170.911 499.225 170.911C508.696 170.911 515.018 176.76 515.554 184.887L570 191.253L569.114 197.454C557.52 211.055 550.685 223.081 549.262 233.159C548.026 242.343 552.248 247.487 561.206 247.487H564.891L561.392 272.41H555.234C530.297 272.41 518.89 257.917 522.576 234.216C523.626 226.793 526.262 219.535 530.997 212.112L509.746 209.293L489.031 272.41H463.745L487.445 202.223H487.468Z" fill="#E3CCD3" fill-opacity="0.62"/>
<path d="M486.139 79.818L456.933 93.1601L457.376 86.442L484.599 103.707L470.533 123.697L445.923 106.173L449.282 104.435L448.045 133.539L423.482 131.918L425.815 102.885L429.15 105.069L402.254 119.21L391.337 97.5761L420.356 84.0226L419.913 90.7407L392.9 73.6871L406.57 53.2276L431.6 71.0093L427.797 72.7241L429.267 43.6204L453.83 45.2412L451.288 74.2744L448.185 72.1133L474.872 57.7377L486.209 79.8414L486.139 79.818Z" fill="#E3CCD3" fill-opacity="0.62"/>
</g>
<defs>
<clipPath id="clip0_193_746">
<rect width="570" height="306" fill="white"/>
</clipPath>
</defs>
</svg>
