<svg width="1024" height="1024" viewBox="0 0 1024 1024" fill="none" xmlns="http://www.w3.org/2000/svg">
<g clip-path="url(#clip0_304_757)">
<rect width="1024" height="1024" fill="white"/>
<rect width="1024" height="1024" fill="url(#paint0_linear_304_757)"/>
<path d="M720.08 374.996C702.678 375.387 685.751 378.094 669.889 382.873C686.287 357.49 695.237 327.371 694.537 296.238C692.636 211.72 622.386 144.524 537.932 146.423C453.479 148.322 386.301 218.609 388.202 303.128C388.214 303.646 388.226 304.185 388.237 304.703C368.724 296.644 347.669 292.676 326.349 293.155C241.895 295.055 174.738 365.36 176.638 449.859C177.593 492.33 195.866 531.547 226.201 559.359C260.429 522.75 321.213 506.539 368.134 514.809C388.294 518.278 407.423 525.462 424.255 535.659C429.496 538.829 431.168 545.655 427.999 550.879C425.405 555.168 420.394 557.068 415.774 555.884C398.533 551.446 381.501 548.637 364.772 548.167C303.028 546.46 225.699 578.059 215.522 644.199C206.97 699.708 236.006 756.064 286.17 781.239C333.44 804.979 389.43 797.778 428.867 764.647C437.882 793.805 455.228 819.967 478.963 839.757C508.379 864.283 545.664 877.307 583.982 876.445C640.413 875.176 696.537 835.498 724.011 787.37C763.058 718.927 735.416 667.27 679.986 621.621C669.644 612.952 658.574 605.183 646.447 598.322C634.319 591.366 621.071 585.895 606.415 580.207C603.666 579.307 603.744 575.114 606.571 574.358C653.75 560.723 704.563 583.96 735.904 619.768C815.46 613.71 877.454 559.037 875.995 494.178C874.537 429.319 804.532 373.039 720.059 374.938L720.08 374.996ZM615.236 448.629C566.291 488.818 488.615 493.026 438.754 452.328C430.435 445.594 423.073 437.818 417.017 429.129C410.998 420.401 406.004 411.13 403.534 400.399C402.832 397.377 406.392 395.048 408.875 396.915C446.71 419.848 485.612 441.546 530.154 445.697C557.723 448.788 585.223 445.381 612.759 442.743C615.958 442.306 617.823 446.629 615.236 448.629Z" fill="url(#paint1_linear_304_757)"/>
</g>
<defs>
<linearGradient id="paint0_linear_304_757" x1="512" y1="0" x2="512" y2="1024" gradientUnits="userSpaceOnUse">
<stop stop-color="#1C1C1E"/>
<stop offset="1" stop-color="#1A1A1A"/>
</linearGradient>
<linearGradient id="paint1_linear_304_757" x1="630.95" y1="827.565" x2="527.45" y2="223.065" gradientUnits="userSpaceOnUse">
<stop stop-color="#FC7F2D" stop-opacity="0.51"/>
<stop offset="0.480848" stop-color="#FC7F2D"/>
</linearGradient>
<clipPath id="clip0_304_757">
<rect width="1024" height="1024" fill="white"/>
</clipPath>
</defs>
</svg>
