<svg width="293" height="282" viewBox="0 0 293 282" fill="none" xmlns="http://www.w3.org/2000/svg">
<path d="M279.701 170.901C271.48 178.957 260.128 183.943 247.593 183.943C272.669 183.943 293 203.881 293 228.471C293 240.764 287.916 251.896 279.701 259.958C271.48 268.014 260.128 273 247.593 273H56.4068C31.3315 273 11 253.062 11 228.471C11 216.179 16.0844 205.047 24.2994 196.985C32.5204 188.929 43.8721 183.943 56.4068 183.943C31.3315 183.943 11 164.004 11 139.414C11 127.122 16.0844 115.99 24.2994 107.928C30.8774 101.477 39.4629 97.0006 49.0581 95.4714C27.4779 92.0321 11 73.6641 11 51.5286C11 39.2364 16.0844 28.1042 24.2994 20.0422C32.5204 11.986 43.8721 7 56.4068 7H247.593C272.669 7 293 26.9383 293 51.5286C293 63.8209 287.916 74.953 279.701 83.0151C273.123 89.4659 264.537 93.9422 254.942 95.4714C276.522 98.9106 293 117.279 293 139.414C293 151.706 287.916 162.839 279.701 170.901Z" fill="url(#paint0_linear_153_746)"/>
<g clip-path="url(#clip0_153_746)">
<path d="M201.452 113.497C160.948 118.763 120.444 124.028 79.9407 129.293C83.2857 120.262 86.7311 108.131 88.0992 93.5215C90.007 73.1127 87.0762 56.1744 84.1768 44.9596C83.9258 42.9388 82.7962 32.1759 90.4024 22.4233C95.2096 16.2543 102.364 11.924 110.736 10.8885L151.566 5.83021C171.441 3.36384 189.553 17.4843 192.013 37.3596L201.452 113.497Z" fill="#5251E9"/>
<path opacity="0.38" d="M178.256 51.9938L102.006 61.4507L109.868 124.84L186.118 115.383L178.256 51.9938Z" fill="#1A0E3D"/>
<path d="M177.636 69.41C178.734 75.7486 177.636 82.2942 174.447 87.8796C171.448 93.1324 167.124 98.9752 160.898 104.19C149.162 114.018 135.739 117.395 124.511 118.135C111.175 119.014 99.2136 109.933 96.1887 96.9167C92.8625 82.608 89.5363 68.2929 86.2165 53.9842C91.212 30.8015 111.489 14.8799 132.971 15.702C150.411 16.3673 166.339 27.9837 173.45 45.1981C174.849 53.2688 176.242 61.3394 177.642 69.41H177.636Z" fill="#F097F9"/>
<path d="M106.293 16.725C110.485 22.2602 116.014 28.1971 123.237 33.4374C150.976 53.5575 182.713 48.1666 192.271 46.1395C192.509 38.6839 191.838 23.5593 182.229 12.7211C167.029 -4.43686 134.402 -5.30919 106.293 16.7313V16.725Z" fill="#5251E9"/>
<path d="M181.602 79.7212C182.355 83.3047 183.089 88.8148 182.229 95.4106C181.778 98.8811 181.275 102.716 179.091 106.707C174.949 114.263 167.431 117.451 164.03 118.631C176.01 117.432 187.991 116.227 199.977 115.029C200.599 114.489 201.082 113.912 201.471 113.334C205.845 106.763 199.343 96.0696 198.54 94.783" fill="#5251E9"/>
<path d="M178.238 47.8794L159.417 50.5916C152.885 51.5329 148.353 57.591 149.295 64.1228C150.236 70.6546 156.294 75.1866 162.826 74.2454L181.647 71.5332C188.179 70.592 192.711 64.5339 191.77 58.0021C190.828 51.4702 184.77 46.9382 178.238 47.8794Z" fill="#F097F9"/>
<path d="M115.706 63.4041C115.286 69.4727 114.872 75.5351 114.451 81.6038C116.961 81.1833 119.472 80.7691 121.982 80.3486" stroke="#1A0E3D" stroke-width="2.51031" stroke-miterlimit="10"/>
<path opacity="0.43" d="M93.4775 86.3356L89.9631 72.9054C97.3308 70.9788 104.981 75.4534 106.908 82.8212C108.834 90.1889 104.36 97.8391 96.9919 99.7657C96.879 99.7971 96.7723 99.8222 96.6593 99.8473L93.4775 86.3356Z" fill="#ED1E79"/>
<path opacity="0.43" d="M151.478 87.2521C159.45 87.2521 165.912 80.7896 165.912 72.8178C165.912 64.846 159.45 58.3835 151.478 58.3835C143.506 58.3835 137.044 64.846 137.044 72.8178C137.044 80.7896 143.506 87.2521 151.478 87.2521Z" fill="#ED1E79"/>
<path d="M105.037 78.466C107.464 78.466 109.43 76.4992 109.43 74.073C109.43 71.6468 107.464 69.6799 105.037 69.6799C102.611 69.6799 100.644 71.6468 100.644 74.073C100.644 76.4992 102.611 78.466 105.037 78.466Z" fill="#1A0E3D"/>
<path d="M137.671 70.3076C140.098 70.3076 142.064 68.3407 142.064 65.9145C142.064 63.4883 140.098 61.5215 137.671 61.5215C135.245 61.5215 133.278 63.4883 133.278 65.9145C133.278 68.3407 135.245 70.3076 137.671 70.3076Z" fill="#1A0E3D"/>
<path d="M137.036 51.6168L129.346 54.3415C127.876 54.8624 127.106 56.4765 127.627 57.9466C128.148 59.4168 129.762 60.1863 131.232 59.6654L138.922 56.9407C140.392 56.4198 141.162 54.8057 140.641 53.3356C140.12 51.8654 138.506 51.0959 137.036 51.6168Z" fill="#5251E9"/>
<path d="M104.86 60.5152L96.7608 61.4981C95.2124 61.686 94.1096 63.0936 94.2975 64.6419C94.4854 66.1902 95.8929 67.2931 97.4413 67.1052L105.54 66.1222C107.089 65.9343 108.192 64.5268 108.004 62.9784C107.816 61.4301 106.408 60.3272 104.86 60.5152Z" fill="#5251E9"/>
<path d="M122.798 87.2018C126.432 90.7664 132.08 91.1367 135.933 88.2498C140.144 85.0994 141.18 78.8424 137.973 74.2737" stroke="#1A0E3D" stroke-width="2.51031" stroke-miterlimit="10"/>
<path fill-rule="evenodd" clip-rule="evenodd" d="M231.198 189.498C228.166 156.115 188.709 121.279 151.226 124.684L151.226 124.678C114.233 128.038 86.5056 157.174 88.7016 190.026H87.623V275.538H231.198V190.026H231.189L231.198 189.498Z" fill="#1A0E3D"/>
<path d="M24.1115 107.717C22.5865 104.887 24.0424 100.952 27.0799 99.6717C26.8916 97.3748 27.149 94.9523 28.4104 92.988C29.6718 91.0237 32.1068 89.6368 34.4665 90.0635C33.8954 88.2812 34.3033 86.2353 35.5208 84.7793C36.7383 83.3233 38.7277 82.4949 40.6669 82.633C43.9617 82.8715 46.3967 85.5638 48.4489 88.049C48.6372 85.2249 51.8629 82.9719 54.7184 83.6685C54.9506 78.8676 59.5821 74.6628 64.5839 74.7004C69.5919 74.7381 74.1544 79.0119 74.3113 83.8129C75.5414 82.018 78.4031 81.7858 80.2984 82.9342C82.1937 84.0764 83.2041 86.2165 83.5743 88.3314C85.4131 87.139 87.5846 86.2228 89.7936 86.4299C92.0027 86.6307 94.1804 88.2435 94.3436 90.3648C96.471 88.7895 99.8851 90.2016 100.946 92.5675C102.006 94.9335 101.272 97.72 99.9855 99.9855C97.5128 104.353 93.2202 107.485 88.846 110.152C83.8317 113.215 78.5412 115.857 73.0562 118.041C67.0754 120.419 60.6866 122.277 54.2226 121.926C44.0935 121.373 35.207 115.556 27.0297 109.801L24.0989 107.724L24.1115 107.717Z" fill="white"/>
<path opacity="0.63" d="M24.1115 107.717C22.5865 104.887 24.0424 100.952 27.0799 99.6717C26.8916 97.3748 27.149 94.9523 28.4104 92.988C29.6718 91.0237 32.1068 89.6368 34.4665 90.0635C33.8954 88.2812 34.3033 86.2353 35.5208 84.7793C36.7383 83.3233 38.7277 82.4949 40.6669 82.633C43.9617 82.8715 46.3967 85.5638 48.4489 88.049C48.6372 85.2249 51.8629 82.9719 54.7184 83.6685C54.9506 78.8676 59.5821 74.6628 64.5839 74.7004C69.5919 74.7381 74.1544 79.0119 74.3113 83.8129C75.5414 82.018 78.4031 81.7858 80.2984 82.9342C82.1937 84.0764 83.2041 86.2165 83.5743 88.3314C85.4131 87.139 87.5846 86.2228 89.7936 86.4299C92.0027 86.6307 94.1804 88.2435 94.3436 90.3648C96.471 88.7895 99.8851 90.2016 100.946 92.5675C102.006 94.9335 101.272 97.72 99.9855 99.9855C97.5128 104.353 93.2202 107.485 88.846 110.152C83.8317 113.215 78.5412 115.857 73.0562 118.041C67.0754 120.419 60.6866 122.277 54.2226 121.926C44.0935 121.373 35.207 115.556 27.0297 109.801L24.0989 107.724L24.1115 107.717Z" fill="white"/>
<path d="M27.0611 106.23C26.9607 104.479 28.1091 102.728 29.7973 102.05C29.6844 100.136 30.1237 98.1342 31.3788 96.6406C32.6277 95.1469 34.7677 94.2683 36.6944 94.7829C37.9244 92.7684 40.2716 91.4317 42.7003 91.3626C45.129 91.2936 47.5577 92.486 48.9196 94.4252C50.363 92.9441 52.8984 92.9065 54.8062 93.7788C56.7141 94.6511 58.1387 96.2452 59.5068 97.789C60.1657 94.852 61.9041 92.0592 64.5713 90.4903C67.2385 88.9214 70.8722 88.7582 73.4578 90.4589C74.5373 88.2561 77.3049 86.957 79.7775 87.4779C82.2502 88.0051 84.1894 90.302 84.2019 92.737C85.3378 91.1744 87.4465 90.4024 89.4234 90.597C91.4002 90.7915 93.2077 91.871 94.4879 93.327C96.6907 95.831 97.3622 99.358 96.7974 102.59C96.2326 105.822 94.5507 108.79 92.5048 111.414C87.2833 118.097 79.6332 122.798 71.4433 125.628C65.3935 127.718 58.8541 128.86 52.503 127.9C42.079 126.325 33.2615 119.202 27.6071 110.654L27.0674 106.236L27.0611 106.23Z" fill="white"/>
<path d="M97.9019 112.612L96.3581 169.546L96.2137 169.634H87.4277L81.9489 167.004L75.8489 169.634H63.3601L58.8541 166.785L54.4611 169.634H43.5099L38.2069 168.479L26.3017 120.426C26.3017 120.426 25.4294 113.635 25.8875 108.966C26.0758 107.102 26.4775 105.571 27.2305 104.968C27.764 104.504 28.5171 104.529 29.4961 105.263C29.5337 105.276 29.5651 105.314 29.6028 105.339C29.7471 105.464 29.9103 105.596 30.0735 105.753C30.2053 105.897 30.3559 106.035 30.4877 106.18C30.6508 106.349 30.8077 106.525 30.9709 106.719C30.9709 106.719 30.7324 102.245 36.6379 101.033C40.9431 100.161 43.3404 102.42 44.332 103.72C44.7085 104.209 44.8843 104.567 44.8843 104.567C44.8843 104.567 47.4071 110.535 53.3565 109.863C59.306 109.205 59.4001 103.098 59.4001 103.098C59.4001 103.098 59.4378 102.891 59.5633 102.546C60.0465 101.027 61.8414 96.835 66.7051 96.4396C71.6755 96.0254 73.4892 99.5524 73.9285 100.707C74.0226 100.939 74.0603 101.077 74.0603 101.077C74.0603 101.077 75.5602 108.295 81.6853 108.163C81.7669 108.163 81.8611 108.163 81.9427 108.15C82.746 108.113 83.4865 107.943 84.1517 107.673C85.1056 107.303 85.9215 106.744 86.6181 106.104C89.392 103.544 90.44 99.521 90.44 99.521C90.44 99.521 90.5091 98.9437 90.8291 98.1717V98.1592C90.8542 98.109 90.8856 98.0462 90.9107 97.9897C91.1367 97.6069 91.4065 97.9395 91.8333 98.5295C92.6366 99.6089 94.0172 101.542 96.9103 101.692H96.9229C97.5944 101.73 98.153 101.862 98.5985 102.063C102.766 104.002 97.9019 112.593 97.9019 112.593V112.612Z" fill="#31B57A"/>
<path d="M34.2155 169.634L18.2374 106.657C18.2374 106.657 20.4464 103.375 23.8918 103.054H23.9044C25.0466 102.954 26.2892 103.167 27.6573 103.927C28.2472 104.259 28.8622 104.711 29.4773 105.264C29.5149 105.276 29.5463 105.314 29.584 105.339C29.7283 105.464 29.8915 105.596 30.0546 105.753C30.1864 105.897 30.337 106.035 30.4688 106.18L31.8872 113.115L32.703 117.037L43.5224 169.634H34.2092H34.2155Z" fill="#207A52"/>
<path d="M63.2911 169.634H54.4736L47.8778 126.796L46.9239 120.62L44.3257 103.72C44.7023 104.209 44.878 104.567 44.878 104.567C44.878 104.567 45.8821 98.9438 51.8378 98.2786C57.7872 97.6071 59.4001 103.098 59.4001 103.098C59.4001 103.098 59.4378 102.891 59.5633 102.546L60.6239 121.593L60.9879 128.026L63.3099 169.628L63.2911 169.634Z" fill="#207A52"/>
<path d="M91.827 98.5422L91.6638 108.326L91.5948 112.493V112.506L90.8982 156.204L90.6848 169.628H75.8175L74.5686 124.423L74.3678 117.489L73.9097 100.707C74.0038 100.94 74.0415 101.078 74.0415 101.078C74.0415 101.078 75.3845 95.147 81.6414 94.7767C81.6665 94.7642 81.7104 94.7642 81.7356 94.7642C88.0741 94.4315 90.4212 99.5212 90.4212 99.5212C90.4212 99.5212 90.4902 98.9438 90.8103 98.1719V98.1593C90.8354 98.1091 90.8668 98.0464 90.8919 97.9899C91.1178 97.6071 91.3877 97.9397 91.8144 98.5296L91.827 98.5422Z" fill="#207A52"/>
<path d="M105.583 99.289L99.4458 169.634H87.3838L88.8586 139.052L90.051 114.219V114.206L90.2894 109.255L90.8229 98.1844V98.1719C90.848 98.1217 90.8794 98.0589 90.9045 98.0024C91.4693 96.741 92.6868 95.0717 95.3414 94.4943C96.1071 94.3123 96.9919 94.237 98.0086 94.2872C99.4018 94.3625 100.544 94.6072 101.467 94.9461C105.182 96.3331 105.583 99.2952 105.583 99.2952V99.289Z" fill="#31B57A"/>
<path d="M44.1626 161.934L36.8074 130.555C36.8074 130.555 34.5481 121.141 28.3225 121.141H22.0217C21.5008 121.141 21.1368 121.706 21.3 122.252L33.977 165.071" fill="#F097F9"/>
<path d="M38.483 163.521L24.9148 130.988C24.9148 130.988 20.7916 121.242 14.8547 122.384L8.84256 123.545C8.34677 123.639 8.11457 124.317 8.38443 124.875L29.4271 168.787" fill="#F097F9"/>
<path d="M105.157 176.857C105.176 177.491 105.119 178.056 105.037 178.546C104.874 182.242 104.015 187.57 100.237 190.758C100.218 190.771 100.205 190.79 100.186 190.815C98.95 203.567 97.7199 216.326 96.4836 229.084C86.229 228.243 75.9807 227.409 65.7324 226.574C66.9812 214.939 68.2238 203.297 69.4727 191.668C69.3409 191.499 69.2656 191.285 69.2656 191.047V185.487C69.2656 184.991 68.933 184.577 68.4811 184.501C55.8606 182.506 43.2463 180.51 30.632 178.508C28.0276 178.1 25.6616 176.663 23.986 174.479C16.0597 164.162 8.13339 153.844 0.207105 143.527C-0.131787 143.081 -0.0502018 142.429 0.37655 142.09C1.85763 140.929 4.06042 139.661 6.50797 140.038C9.08731 140.433 10.7441 142.479 11.5286 143.414C14.3652 146.803 18.8273 151.271 26.3519 157.409C26.5026 157.534 26.6908 157.603 26.8854 157.61C32.1445 157.741 37.4287 157.898 42.7505 158.087L35.7217 129.187C35.6024 128.685 35.9539 128.201 36.4183 128.22L42.0727 128.503C47.6582 128.779 49.271 137.326 49.271 137.326L51.819 151.24C52.5909 155.463 56.1744 158.614 60.467 158.808C70.8785 159.285 81.1645 159.863 91.3312 160.522C93.9984 160.697 96.4459 162.072 97.9898 164.262C99.9227 166.998 101.856 169.734 103.782 172.464C104.291 173.268 105.094 174.812 105.157 176.857Z" fill="#F097F9"/>
<path opacity="0.38" d="M69.3096 184.533C69.3096 186.415 69.3096 188.298 69.3096 190.181C75.1523 188.292 80.995 186.409 86.844 184.52C81.0013 184.52 75.1586 184.526 69.3158 184.533H69.3096Z" fill="#1A0E3D"/>
<path opacity="0.38" d="M11.5286 130.555L17.1768 128.672C16.8881 128.076 15.8338 126.068 13.4113 124.907C11.8989 124.185 10.4743 124.084 9.48896 124.141C8.94924 124.172 8.62918 124.743 8.86766 125.227C9.75254 127.003 10.6437 128.779 11.5286 130.555Z" fill="#1A0E3D"/>
<path opacity="0.38" d="M23.8667 128.609L29.7157 127.499C29.5086 126.865 28.7305 124.737 26.49 123.262C24.7956 122.152 23.1011 121.963 22.1472 121.957C21.871 121.957 21.6828 122.227 21.7706 122.484C22.4672 124.524 23.1701 126.57 23.8667 128.609Z" fill="#1A0E3D"/>
<path opacity="0.38" d="M37.6295 135.984L43.5789 135.783C43.4722 135.124 43.0329 132.902 41.0372 131.101C39.531 129.745 37.8868 129.3 36.9454 129.143C36.6756 129.099 36.4496 129.337 36.4936 129.607C36.8701 131.735 37.2467 133.856 37.6232 135.984H37.6295Z" fill="#1A0E3D"/>
<path opacity="0.38" d="M4.95786 148.253L10.0349 145.14C9.62075 144.619 8.13967 142.906 5.5164 142.322C3.53953 141.883 1.88901 142.309 0.991573 142.636C0.734267 142.73 0.652682 143.05 0.828403 143.263C2.2028 144.926 3.58346 146.589 4.95786 148.253Z" fill="#1A0E3D"/>
<path d="M65.9393 195.578L101.57 198.758L96.1486 259.498L77.2208 257.809C68.0007 256.986 61.1862 248.836 62.009 239.616L65.9393 195.578Z" fill="#1A0E3D"/>
<path d="M66.9436 196.149L66.5482 200.523" stroke="white" stroke-width="0.627576" stroke-miterlimit="10"/>
<path d="M87.2582 197.982L86.8629 202.356" stroke="white" stroke-width="0.627576" stroke-miterlimit="10"/>
<path d="M78.2274 197.166L77.8383 201.54" stroke="white" stroke-width="0.627576" stroke-miterlimit="10"/>
<path d="M80.4867 197.373L80.0913 201.747" stroke="white" stroke-width="0.627576" stroke-miterlimit="10"/>
<path d="M73.7151 196.758L73.3198 201.138" stroke="white" stroke-width="0.627576" stroke-miterlimit="10"/>
<path d="M69.2029 196.356L68.8075 200.73" stroke="white" stroke-width="0.627576" stroke-miterlimit="10"/>
<path d="M84.9989 197.781L84.6099 202.155" stroke="white" stroke-width="0.627576" stroke-miterlimit="10"/>
<path d="M75.9744 196.965L75.579 201.339" stroke="white" stroke-width="0.627576" stroke-miterlimit="10"/>
<path d="M82.746 197.574L82.3506 201.948" stroke="white" stroke-width="0.627576" stroke-miterlimit="10"/>
<path d="M71.4621 196.557L71.0668 200.931" stroke="white" stroke-width="0.627576" stroke-miterlimit="10"/>
<path d="M78.24 197.492L77.8446 201.866" stroke="white" stroke-width="0.627576" stroke-miterlimit="10"/>
<path d="M98.5483 199.325L98.1592 203.699" stroke="white" stroke-width="0.627576" stroke-miterlimit="10"/>
<path d="M89.5238 198.509L89.1284 202.883" stroke="white" stroke-width="0.627576" stroke-miterlimit="10"/>
<path d="M91.7831 198.709L91.3877 203.09" stroke="white" stroke-width="0.627576" stroke-miterlimit="10"/>
<path d="M85.0115 198.101L84.6161 202.475" stroke="white" stroke-width="0.627576" stroke-miterlimit="10"/>
<path d="M80.493 197.693L80.0976 202.067" stroke="white" stroke-width="0.627576" stroke-miterlimit="10"/>
<path d="M96.2953 199.117L95.9 203.492" stroke="white" stroke-width="0.627576" stroke-miterlimit="10"/>
<path d="M87.2645 198.308L86.8691 202.682" stroke="white" stroke-width="0.627576" stroke-miterlimit="10"/>
<path d="M94.0361 198.917L93.6407 203.291" stroke="white" stroke-width="0.627576" stroke-miterlimit="10"/>
<path d="M82.7522 197.9L82.3569 202.274" stroke="white" stroke-width="0.627576" stroke-miterlimit="10"/>
<path d="M77.1317 56.5165C77.4718 55.5974 78.7717 55.5974 79.1118 56.5165L80.8046 61.0912C80.9116 61.3802 81.1394 61.608 81.4284 61.7149L86.0031 63.4077C86.9222 63.7478 86.9222 65.0478 86.0031 65.3879L81.4284 67.0807C81.1394 67.1876 80.9116 67.4155 80.8046 67.7044L79.1118 72.2791C78.7717 73.1982 77.4718 73.1982 77.1317 72.2791L75.4389 67.7044C75.3319 67.4155 75.1041 67.1876 74.8151 67.0807L70.2404 65.3879C69.3213 65.0478 69.3213 63.7478 70.2404 63.4077L74.8151 61.7149C75.1041 61.608 75.3319 61.3802 75.4389 61.0912L77.1317 56.5165Z" fill="white"/>
<path d="M212.261 113.524C212.601 112.605 213.901 112.605 214.241 113.524L215.934 118.099C216.041 118.388 216.269 118.616 216.558 118.723L221.133 120.416C222.052 120.756 222.052 122.056 221.133 122.396L216.558 124.089C216.269 124.195 216.041 124.423 215.934 124.712L214.241 129.287C213.901 130.206 212.601 130.206 212.261 129.287L210.568 124.712C210.461 124.423 210.234 124.195 209.945 124.089L205.37 122.396C204.451 122.056 204.451 120.756 205.37 120.416L209.945 118.723C210.234 118.616 210.461 118.388 210.568 118.099L212.261 113.524Z" fill="white"/>
<path d="M196.919 82.2736C197.183 81.2033 198.704 81.2033 198.969 82.2736L200.822 89.7796C200.916 90.1603 201.213 90.4576 201.593 90.5515L209.1 92.4045C210.17 92.6687 210.17 94.1902 209.1 94.4544L201.593 96.3074C201.213 96.4014 200.916 96.6986 200.822 97.0793L198.969 104.585C198.704 105.656 197.183 105.656 196.919 104.585L195.066 97.0793C194.972 96.6986 194.674 96.4014 194.294 96.3074L186.788 94.4544C185.717 94.1902 185.717 92.6687 186.788 92.4045L194.294 90.5515C194.674 90.4576 194.972 90.1603 195.066 89.7796L196.919 82.2736Z" fill="white"/>
<path d="M212.261 113.524C212.601 112.605 213.901 112.605 214.241 113.524L215.934 118.099C216.041 118.388 216.269 118.616 216.558 118.723L221.133 120.416C222.052 120.756 222.052 122.056 221.133 122.396L216.558 124.089C216.269 124.195 216.041 124.423 215.934 124.712L214.241 129.287C213.901 130.206 212.601 130.206 212.261 129.287L210.568 124.712C210.461 124.423 210.234 124.195 209.945 124.089L205.37 122.396C204.451 122.056 204.451 120.756 205.37 120.416L209.945 118.723C210.234 118.616 210.461 118.388 210.568 118.099L212.261 113.524Z" fill="white"/>
<path d="M196.919 82.2736C197.183 81.2033 198.704 81.2033 198.969 82.2736L200.822 89.7796C200.916 90.1603 201.213 90.4576 201.593 90.5515L209.1 92.4045C210.17 92.6687 210.17 94.1902 209.1 94.4544L201.593 96.3074C201.213 96.4014 200.916 96.6986 200.822 97.0793L198.969 104.585C198.704 105.656 197.183 105.656 196.919 104.585L195.066 97.0793C194.972 96.6986 194.674 96.4014 194.294 96.3074L186.788 94.4544C185.717 94.1902 185.717 92.6687 186.788 92.4045L194.294 90.5515C194.674 90.4576 194.972 90.1603 195.066 89.7796L196.919 82.2736Z" fill="white"/>
<path d="M19.5612 163.562C19.8254 162.492 21.3469 162.492 21.6111 163.562L23.4641 171.068C23.558 171.449 23.8553 171.746 24.236 171.84L31.742 173.693C32.8123 173.958 32.8123 175.479 31.742 175.743L24.236 177.596C23.8553 177.69 23.558 177.987 23.4641 178.368L21.6111 185.874C21.3469 186.944 19.8254 186.944 19.5612 185.874L17.7082 178.368C17.6142 177.987 17.317 177.69 16.9363 177.596L9.43025 175.743C8.36001 175.479 8.36001 173.958 9.43025 173.693L16.9363 171.84C17.317 171.746 17.6142 171.449 17.7082 171.068L19.5612 163.562Z" fill="white"/>
<path d="M42.7866 12.5975C43.0508 11.5273 44.5722 11.5273 44.8365 12.5975L46.6895 20.1036C46.7834 20.4843 47.0807 20.7815 47.4614 20.8755L54.9674 22.7285C56.0377 22.9927 56.0377 24.5142 54.9674 24.7784L47.4614 26.6314C47.0807 26.7253 46.7834 27.0226 46.6895 27.4033L44.8365 34.9093C44.5722 35.9796 43.0508 35.9796 42.7866 34.9093L40.9336 27.4033C40.8396 27.0226 40.5424 26.7253 40.1617 26.6314L32.6556 24.7784C31.5854 24.5142 31.5854 22.9927 32.6556 22.7285L40.1617 20.8755C40.5424 20.7815 40.8396 20.4843 40.9336 20.1036L42.7866 12.5975Z" fill="white"/>
</g>
<defs>
<linearGradient id="paint0_linear_153_746" x1="152" y1="7" x2="152" y2="273" gradientUnits="userSpaceOnUse">
<stop offset="0.046875" stop-color="#FC7F2D"/>
<stop offset="0.880208" stop-color="#FFC5A0"/>
</linearGradient>
<clipPath id="clip0_153_746">
<rect width="234.971" height="281.65" fill="white"/>
</clipPath>
</defs>
</svg>
