<svg width="274" height="146" viewBox="0 0 274 146" fill="none" xmlns="http://www.w3.org/2000/svg">
<path d="M1.60352 68.2312H3.62194C7.25508 68.2312 9.53141 66.4604 10.036 62.7507L14.4205 31.6163H7.92789L9.53141 20.3976H16.024L16.5286 16.8561C17.8966 6.56759 24.3107 2.18546 34.7728 2.18546H40.2562L38.6527 13.4042H35.0195C31.3079 13.4042 29.11 15.1749 28.5157 18.8846L28.3475 20.3976H37.722L36.1184 31.6163H26.7552L22.0232 65.4518C20.756 74.3953 14.9363 79.4499 3.79014 79.4499H0L1.60352 68.2312ZM45.3247 20.4088H57.6482L51.5705 63.4344H39.247L45.3247 20.4088ZM45.6611 6.91502C46.2554 2.94757 49.7091 0 53.6787 0C58.4892 0 61.5281 3.46311 60.9337 8.18147C60.3394 12.2274 56.8857 15.0965 52.9161 15.0965C48.1056 15.0965 45.0667 11.5549 45.6611 6.91502Z" fill="#FC7F2D" fill-opacity="0.8"/>
<path d="M60.5525 53.5608C63.4231 52.4625 66.1256 51.1176 68.7383 49.5934C65.1948 42.7568 63.9277 33.8133 65.2733 23.6929C67.3815 8.84296 74.9842 1.67017 84.9417 1.67017C95.9981 1.67017 102.076 9.77318 100.046 23.6929C98.7006 33.1408 93.8003 42.2525 86.5452 49.5934C88.743 50.8598 91.2661 51.5323 94.1367 51.5323H96.8391L95.0674 63.4234H91.6922C85.3678 63.4234 79.9629 61.5742 75.657 58.1111C72.0238 60.3078 68.0655 62.157 63.9277 63.4234L60.5525 53.5496V53.5608ZM79.2901 40.2351C83.5961 35.0012 86.4667 28.9268 87.3974 22.5161C88.2384 16.6994 86.9825 13.5725 84.2801 13.5725C81.5777 13.5725 79.1331 16.946 78.1127 24.0291C77.2717 30.182 77.6978 35.7634 79.2901 40.2239V40.2351Z" fill="#FC7F2D" fill-opacity="0.8"/>
<path d="M108.176 20.4091H120.499L119.995 24.3765C123.538 21.0815 127.844 19.4004 132.744 19.4004C138.732 19.4004 143.038 21.9333 145.068 26.4947C149.116 21.8548 154.431 19.4004 160.599 19.4004C170.052 19.4004 175.367 25.643 173.931 36.6936L172.328 48.0804C172.081 50.4451 173.09 51.5435 175.288 51.5435H176.219L174.447 63.4346H170.982C162.292 63.4346 158.49 59.2206 159.589 50.7814L161.283 39.0471C161.955 34.3288 159.421 31.2915 154.779 31.2915C150.136 31.2915 146.84 34.071 145.831 38.3747L142.287 63.4346H129.964L133.428 39.0583C134.101 34.34 131.578 31.3027 126.936 31.3027C122.54 31.3027 119.087 34.0038 118.077 38.1393L114.444 63.4458H102.121L108.198 20.4203L108.176 20.4091Z" fill="#FC7F2D" fill-opacity="0.8"/>
<path d="M9.77805 134.77H11.7965C15.4296 134.77 17.7059 133 18.2105 129.29L22.595 98.1555H16.1024L17.7059 86.9368H24.1985L24.7031 83.3952C26.0487 73.1068 32.4628 68.7134 42.9361 68.7134H48.4195L46.816 79.9321H43.1828C39.4712 79.9321 37.2734 81.7029 36.679 85.4126L36.5108 86.9256H45.8853L44.2817 98.1443H34.9185L30.1865 131.98C28.9194 140.923 23.0996 145.978 11.9534 145.978H8.1521L9.75562 134.759L9.77805 134.77ZM53.4992 86.9368H65.8227L59.7451 129.962H47.4215L53.4992 86.9368ZM53.8356 73.443C54.4299 69.4755 57.8836 66.528 61.8532 66.528C66.6637 66.528 69.7026 69.9911 69.1083 74.7094C68.514 78.7553 65.0602 81.6244 61.0907 81.6244C56.2801 81.6244 53.2413 78.0829 53.8356 73.443Z" fill="#FC7F2D" fill-opacity="0.8"/>
<path d="M75.814 86.9368H88.1376L87.5432 91.0723C91.3446 87.6989 95.987 85.9281 101.134 85.9281C111.181 85.9281 116.833 92.3388 115.308 103.647L113.794 114.619C113.457 116.984 114.467 118.082 116.754 118.082H117.595L115.913 129.974H112.448C103.758 129.974 99.8668 125.76 101.055 117.32L102.659 106.438C103.332 101.204 100.551 97.8305 95.3926 97.8305C90.2345 97.8305 86.7807 100.778 85.5248 105.339L82.0599 129.974H69.7363L75.814 86.948V86.9368Z" fill="#FC7F2D" fill-opacity="0.8"/>
<path d="M122.518 106.763C124.29 94.2776 133.832 85.928 144.799 85.928C150.877 85.928 155.519 88.0351 158.648 91.6663L161.765 69.2289H174.088L167.753 114.619C167.506 116.984 168.515 118.082 170.713 118.082H171.554L169.861 129.973H166.396C160.744 129.973 157.111 128.203 155.676 124.571C151.964 128.617 147.232 130.982 141.839 130.982C128.753 130.982 120.567 120.526 122.507 106.774L122.518 106.763ZM156.192 109.128C157.122 102.638 152.985 97.8192 146.402 97.8192C140.751 97.8192 135.94 102.033 135.256 107.603C134.326 114.182 138.553 119.08 145.135 119.08C150.619 119.08 155.429 114.776 156.192 109.128Z" fill="#FC7F2D" fill-opacity="0.8"/>
<path d="M177.071 106.763C178.843 94.1096 189.395 85.9281 201.808 85.9281C216.071 85.9281 225.435 95.5441 223.416 108.702C223.248 109.879 222.99 111.324 222.575 112.411H189.742C190.673 117.388 194.295 120.425 199.79 120.425C203.669 120.425 206.798 118.744 208.57 116.379H221.734C218.269 125.065 209.915 130.971 198.859 130.971C184.427 130.971 175.143 120.514 177.082 106.763H177.071ZM190.662 104.23H210.925C210.252 99.5116 206.619 96.4743 201.393 96.4743C196.583 96.4743 192.535 99.5116 190.673 104.23H190.662Z" fill="#FC7F2D" fill-opacity="0.8"/>
<path d="M234.327 96.4744C232.129 94.5355 230.952 91.7448 231.456 88.7076C232.051 84.4039 235.426 81.5348 239.978 81.5348C244.531 81.5348 247.57 84.3255 247.828 88.2032L274 91.2405L273.574 94.1993C268.001 100.688 264.715 106.427 264.031 111.235C263.437 115.617 265.467 118.071 269.773 118.071H271.544L269.862 129.962H266.902C254.915 129.962 249.431 123.047 251.203 111.739C251.708 108.197 252.975 104.734 255.251 101.193L245.036 99.8478L235.078 129.962H222.923L234.316 96.4744H234.327Z" fill="#FC7F2D" fill-opacity="0.8"/>
<path d="M231.845 34.1517C230.473 33.8062 229.088 33.6524 227.742 33.6839C229.576 32.0496 230.928 29.8832 231.546 27.4289C233.224 20.7657 229.173 13.9822 222.515 12.3054C215.857 10.6285 209.074 14.6833 207.396 21.3465C207.385 21.3874 207.375 21.4298 207.364 21.4708C206.01 20.4175 204.446 19.6514 202.765 19.2281C196.107 17.5512 189.325 21.608 187.648 28.2696C186.804 31.6179 187.388 35.0855 189.164 37.9204C192.637 35.792 197.75 35.8359 201.247 37.4981C202.752 38.2057 204.095 39.1821 205.194 40.3449C205.536 40.7065 205.519 41.2775 205.158 41.6183C204.862 41.8983 204.428 41.9389 204.092 41.7462C202.837 41.0257 201.563 40.4375 200.263 40.0391C195.462 38.5706 188.72 39.3747 186.493 44.3368C184.623 48.5011 185.68 53.5443 189.066 56.6012C192.256 59.4831 196.799 60.1293 200.605 58.386C200.681 60.8653 201.475 63.2902 202.906 65.3538C204.681 67.9113 207.321 69.7378 210.342 70.4986C214.791 71.619 220.046 69.7235 223.239 66.5465C227.777 62.0281 226.728 57.3831 223.372 52.6083C222.749 51.7055 222.05 50.8574 221.248 50.0578C220.448 49.2505 219.528 48.5355 218.503 47.773C218.307 47.6431 218.404 47.3163 218.642 47.3182C222.633 47.2697 226.112 50.1888 227.793 53.6718C234.158 54.917 240.197 51.9735 241.485 46.8602C242.772 41.7469 238.504 35.824 231.845 34.1468L231.845 34.1517ZM222.039 37.6545C217.335 39.7453 211.158 38.3959 208.131 34.1293C207.625 33.4218 207.216 32.6535 206.93 31.8417C206.647 31.0278 206.456 30.1935 206.494 29.2993C206.505 29.0473 206.834 28.9417 206.988 29.1417C209.457 31.7564 212.036 34.2974 215.436 35.5855C217.529 36.4237 219.757 36.7512 221.972 37.1398C222.232 37.1747 222.285 37.5537 222.039 37.6545Z" fill="#DD7937"/>
</svg>
