<svg width="325" height="318" viewBox="0 0 325 318" fill="none" xmlns="http://www.w3.org/2000/svg">
<g clip-path="url(#clip0_153_747)">
<path d="M217.648 111.612C225.401 109.485 229.767 100.766 227.4 92.1358C225.032 83.5061 216.828 78.2344 209.076 80.3612C201.323 82.488 196.957 91.2079 199.324 99.8376C201.692 108.467 209.896 113.739 217.648 111.612Z" fill="#1A0E3D"/>
<path d="M231.645 58.339C235.203 71.3124 227.722 84.6689 214.936 88.1759C204.525 91.0295 193.797 86.4744 188.255 77.683C185.257 81.2125 181.205 83.9156 176.425 85.2264C173.363 86.0645 170.27 86.2686 167.303 85.9042C164.249 90.9704 159.335 94.8999 153.224 96.574C152.093 96.8848 150.955 97.1132 149.816 97.2446C149.949 97.6472 150.076 98.0576 150.19 98.4702C153.747 111.444 146.267 124.8 133.48 128.307C132.789 128.5 132.084 128.653 131.382 128.785C132.561 136.113 128.039 143.314 120.717 145.325C112.862 147.476 104.75 142.855 102.592 135.001C102.313 133.983 102.143 132.954 102.093 131.934C92.0475 134.681 81.6754 128.771 78.9213 118.727C76.7252 110.719 80.0311 102.502 86.5527 98.1096C81.9978 96.621 78.2506 92.949 76.8894 87.9832C74.9877 81.0472 78.3679 73.9154 84.5862 70.8562C84.1207 69.888 83.7369 68.8653 83.4414 67.7869C80.8001 58.1481 86.3578 48.2276 95.8564 45.6222C100.836 44.2589 105.918 45.1712 109.992 47.7497C111.393 47.0352 112.886 46.4591 114.462 46.0224C116.765 45.3876 119.077 45.1195 121.351 45.1838C118.231 32.426 125.677 19.4707 138.245 16.0262C147.098 13.5993 156.164 16.521 162.083 22.857C164.51 15.4104 170.452 9.32529 178.479 7.11922C191.266 3.61227 204.513 11.2832 208.076 24.2488C209.604 29.8272 209.094 35.4776 206.994 40.3861C218.096 39.7498 228.546 47.0295 231.65 58.3244L231.645 58.339Z" fill="#1A0E3D"/>
<path d="M121.742 129.308C122.418 136.312 125.471 142.886 130.445 147.857C135.121 152.528 141.368 157.43 149.446 161.133C164.659 168.098 179.783 167.777 191.838 165.31C206.147 162.382 216.131 149.352 215.553 134.755C214.92 118.708 214.287 102.661 213.654 86.6142C198.266 64.9611 173.98 54.326 153.299 59.7818C151.319 60.3031 127.817 66.8924 120.897 87.6608C118.909 93.6281 118.877 99.0084 119.158 102.582C118.207 114.324 121.164 123.364 121.743 129.314L121.742 129.308Z" fill="#A44C1C"/>
<path d="M118.137 132.708L138.761 130.124C145.918 129.228 150.993 122.698 150.097 115.541C149.2 108.384 142.671 103.308 135.514 104.205L114.89 106.788C107.732 107.685 102.657 114.214 103.554 121.372C104.45 128.529 110.979 133.604 118.137 132.708Z" fill="#A44C1C"/>
<path d="M185.283 105.064C185.112 108.598 184.94 112.125 184.777 115.659C188.137 115.475 190.769 118.288 190.56 121.183C190.353 124.097 187.319 126.514 184.008 125.822" stroke="#1A0E3D" stroke-width="2.7439" stroke-miterlimit="10"/>
<path d="M215.352 122.806L215.177 107.632C206.852 107.732 200.084 114.656 200.178 122.982C200.271 131.308 207.202 138.075 215.528 137.981C215.653 137.982 215.777 137.976 215.902 137.971L215.346 122.808L215.352 122.806Z" fill="#F097F9"/>
<path d="M152.759 140.914C161.365 139.554 167.24 131.474 165.88 122.867C164.52 114.26 156.44 108.386 147.833 109.746C139.226 111.106 133.352 119.186 134.712 127.793C136.072 136.4 144.152 142.274 152.759 140.914Z" fill="#F097F9"/>
<path d="M200.364 117.966C202.984 117.552 204.772 115.093 204.358 112.474C203.944 109.854 201.485 108.066 198.865 108.48C196.246 108.894 194.458 111.353 194.872 113.973C195.286 116.592 197.745 118.38 200.364 117.966Z" fill="#1A0E3D"/>
<path d="M163.605 118.803C166.225 118.389 168.013 115.93 167.599 113.31C167.185 110.691 164.726 108.903 162.106 109.317C159.487 109.731 157.699 112.19 158.113 114.809C158.527 117.429 160.986 119.217 163.605 118.803Z" fill="#1A0E3D"/>
<path d="M161.98 104.751L170.874 105.4C172.575 105.524 174.054 104.246 174.178 102.545C174.302 100.845 173.024 99.3661 171.323 99.2421L162.429 98.5937C160.729 98.4698 159.25 99.7477 159.126 101.448C159.002 103.148 160.28 104.627 161.98 104.751Z" fill="#1A0E3D"/>
<path d="M200.287 104.247L209.108 102.941C210.795 102.691 211.959 101.122 211.71 99.4354C211.46 97.7489 209.89 96.5842 208.204 96.8338L199.382 98.1397C197.696 98.3893 196.531 99.9588 196.781 101.645C197.031 103.332 198.6 104.497 200.287 104.247Z" fill="#1A0E3D"/>
<path d="M133.958 113.233C143.64 110.577 149.458 101.019 146.952 91.8855C144.446 82.7516 134.566 77.5002 124.884 80.1562C115.203 82.8122 109.385 92.3698 111.891 101.504C114.396 110.638 124.276 115.889 133.958 113.233Z" fill="#1A0E3D"/>
<path d="M140.362 87.2996C150.043 84.6436 155.861 75.086 153.355 65.9521C150.85 56.8182 140.97 51.5669 131.288 54.2229C121.606 56.8789 115.788 66.4365 118.294 75.5704C120.8 84.7043 130.68 89.9556 140.362 87.2996Z" fill="#1A0E3D"/>
<path d="M171.092 80.0478C181.87 77.0912 188.346 66.4516 185.557 56.2838C182.768 46.1159 171.769 40.2701 160.991 43.2268C150.213 46.1835 143.737 56.823 146.526 66.9909C149.316 77.1587 160.314 83.0045 171.092 80.0478Z" fill="#1A0E3D"/>
<path d="M216.199 209.993L246.865 223.467L226.478 269.866C223.719 276.146 216.378 279.005 210.098 276.246L190.805 267.769L216.192 209.99L216.199 209.993Z" fill="#A44C1C"/>
<path d="M204.844 94.9141C216.637 91.6788 223.724 80.0374 220.672 68.9123C217.62 57.7872 205.585 51.3913 193.792 54.6266C181.998 57.8619 174.911 69.5033 177.963 80.6284C181.015 91.7535 193.05 98.1494 204.844 94.9141Z" fill="#1A0E3D"/>
<path d="M131.393 167H143.072C175.596 167 202 186.849 202 211.3V272.37C202 277.131 196.854 281 190.52 281H84.8913C78.3247 281 73 276.997 73 272.066V210.903C73 186.669 99.1637 167 131.393 167Z" fill="#FC7F2D"/>
<path d="M256.226 151.437L267.674 153.348C269.204 153.604 270.241 155.056 269.985 156.586L263.647 194.543C262.844 199.354 258.288 202.606 253.477 201.803L253.308 201.774C248.497 200.971 245.245 196.415 246.048 191.605L252.287 154.242C252.598 152.382 254.359 151.125 256.219 151.435L256.226 151.437Z" fill="#1A0E3D"/>
<path d="M292.512 186.4C291.147 184.637 289.309 184.006 288.136 183.78C288.266 183.053 288.355 182.538 288.396 182.284C288.472 181.839 288.863 179.177 287.024 176.797C285.001 174.176 281.934 174.06 281.537 174.053C281.276 174.732 280.974 175.528 280.617 176.44C281.104 173.854 281.441 171.885 281.537 171.309C281.612 170.863 282.003 168.201 280.165 165.821C278.141 163.201 275.075 163.084 274.677 163.077C274.08 164.655 273.209 166.905 272.104 169.587C268.812 177.627 267.453 178.937 266.843 180.124C265.306 183.101 262.302 185.028 258.954 185.028H236.036C235.329 182.922 234.726 180.864 234.204 178.855C239.836 178.628 245.468 178.395 251.1 178.169C251.848 178.018 256.924 176.893 259.578 171.995C261.561 168.345 260.998 164.82 260.793 163.763C247.677 165.094 234.561 166.432 221.445 167.762C218.948 168.016 215.251 172.201 213.303 177.544C211.649 182.106 212.411 186.146 212.939 189.144C213.913 194.701 215.038 202.212 216.012 212.131L203.719 239.632L234.163 253.242L247.128 224.239C249.172 219.656 253.741 216.714 258.755 216.734C270.239 216.782 278.607 216.473 282.133 216.583C282.71 216.604 285.46 216.624 287.71 214.525C289.192 213.14 289.7 211.452 289.96 210.519C291.847 203.804 293.637 193.336 293.884 191.888C293.96 191.442 294.351 188.781 292.512 186.4ZM265.814 196.004H264.435C258.989 196.079 250.723 196.251 240.563 196.1C239.39 196.086 238.19 196.066 236.962 196.038L236.948 196.004H264.435C265.121 195.997 265.766 195.99 266.363 195.983C266.178 195.997 265.999 196.004 265.814 196.004Z" fill="#A44C1C"/>
<path d="M239.877 196.1C238.704 196.086 237.504 196.066 236.276 196.038L236.262 196.004H239.829C239.829 196.004 239.864 196.066 239.877 196.1Z" fill="#A44C1C"/>
<path d="M263.749 196.004C258.303 196.079 250.037 196.251 239.877 196.1C238.704 196.086 237.504 196.066 236.276 196.038L236.262 196.004H263.749Z" fill="#A44C1C"/>
<path d="M172.467 127.132C169.786 125.347 166.167 126.073 164.382 128.754C162.597 131.434 163.323 135.054 166.003 136.839L172.284 141.021C174.964 142.806 178.584 142.08 180.369 139.4C182.154 136.719 181.428 133.099 178.747 131.315L172.467 127.132Z" fill="#1A0E3D" stroke="#1A0E3D" stroke-width="2.7439" stroke-miterlimit="10"/>
<path d="M263.701 90.3638C244.761 90.3638 229.402 105.723 229.402 124.663C229.402 143.602 244.761 158.961 263.701 158.961C282.641 158.961 298 143.602 298 124.663C298 105.723 282.641 90.3638 263.701 90.3638ZM263.701 150.73C249.303 150.73 237.634 139.061 237.634 124.663C237.634 110.264 249.303 98.5955 263.701 98.5955C278.1 98.5955 289.768 110.264 289.768 124.663C289.768 139.061 278.1 150.73 263.701 150.73Z" fill="#1A0E3D"/>
<mask id="mask0_153_747" style="mask-type:luminance" maskUnits="userSpaceOnUse" x="237" y="98" width="53" height="53">
<path d="M263.358 150.044C277.565 150.044 289.082 138.527 289.082 124.32C289.082 110.113 277.565 98.5955 263.358 98.5955C249.151 98.5955 237.634 110.113 237.634 124.32C237.634 138.527 249.151 150.044 263.358 150.044Z" fill="white"/>
</mask>
<g mask="url(#mask0_153_747)">
<path opacity="0.34" d="M278.98 95.8973L273.894 93.218L243.92 150.116L249.006 152.795L278.98 95.8973Z" fill="white"/>
<path opacity="0.34" d="M292.573 102.151L282.717 96.9592L252.743 153.857L262.6 159.05L292.573 102.151Z" fill="white"/>
</g>
<path opacity="0.38" d="M254.146 166.13C254.324 167.543 254.495 168.949 254.674 170.362C254.736 170.849 255.188 171.192 255.668 171.103C256.615 170.931 258.097 170.431 259.188 168.99C260.23 167.618 260.354 166.136 260.299 165.197C260.264 164.682 259.798 164.319 259.29 164.408C257.809 164.662 256.327 164.922 254.852 165.176C254.399 165.252 254.091 165.677 254.146 166.13Z" fill="#1A0E3D"/>
<path opacity="0.38" d="M274.135 169.669C274.732 168.38 275.329 167.09 275.925 165.8C276.131 165.355 276.666 165.162 277.098 165.396C277.942 165.848 279.204 166.774 279.808 168.476C280.384 170.095 280.055 171.549 279.712 172.427C279.527 172.907 278.964 173.113 278.511 172.873C277.181 172.18 275.85 171.487 274.512 170.794C274.107 170.582 273.936 170.088 274.128 169.669H274.135Z" fill="#1A0E3D"/>
<path opacity="0.38" d="M281.399 180.721C281.996 179.431 282.593 178.141 283.19 176.852C283.396 176.406 283.931 176.214 284.363 176.447C285.207 176.9 286.469 177.826 287.072 179.527C287.649 181.146 287.319 182.6 286.976 183.478C286.791 183.958 286.229 184.164 285.776 183.924C284.445 183.231 283.114 182.538 281.777 181.846C281.372 181.633 281.2 181.139 281.393 180.721H281.399Z" fill="#1A0E3D"/>
<path opacity="0.38" d="M286.53 190.098C287.127 188.808 287.724 187.519 288.321 186.229C288.527 185.783 289.062 185.591 289.494 185.824C290.338 186.277 291.6 187.203 292.203 188.904C292.78 190.523 292.45 191.977 292.107 192.855C291.922 193.336 291.36 193.541 290.907 193.301C289.576 192.608 288.245 191.916 286.908 191.223C286.503 191.01 286.332 190.516 286.524 190.098H286.53Z" fill="#1A0E3D"/>
<path d="M162.379 292.626L204.926 218.931L247.699 243.626L212.163 305.178C208.294 311.879 199.71 314.179 193.009 310.31L162.379 292.626Z" fill="#FC7F2D"/>
<path opacity="0.38" d="M256.841 216.583C255.559 216.878 253.816 217.448 252.04 218.641C247.889 221.426 246.476 225.618 246.058 227.079C240.735 222.586 235.412 218.086 230.095 213.593C239.013 214.587 247.931 215.589 256.848 216.583H256.841Z" fill="#1A0E3D"/>
<path d="M291.062 106.535C291.384 105.664 292.616 105.664 292.938 106.535L294.541 110.868C294.643 111.142 294.858 111.357 295.132 111.459L299.465 113.062C300.336 113.384 300.336 114.616 299.465 114.938L295.132 116.541C294.858 116.643 294.643 116.858 294.541 117.132L292.938 121.465C292.616 122.336 291.384 122.336 291.062 121.465L289.459 117.132C289.357 116.858 289.142 116.643 288.868 116.541L284.535 114.938C283.664 114.616 283.664 113.384 284.535 113.062L288.868 111.459C289.142 111.357 289.357 111.142 289.459 110.868L291.062 106.535Z" fill="white"/>
<path d="M107.062 149.535C107.384 148.664 108.616 148.664 108.938 149.535L110.541 153.868C110.643 154.142 110.858 154.357 111.132 154.459L115.465 156.062C116.336 156.384 116.336 157.616 115.465 157.938L111.132 159.541C110.858 159.643 110.643 159.858 110.541 160.132L108.938 164.465C108.616 165.336 107.384 165.336 107.062 164.465L105.459 160.132C105.357 159.858 105.142 159.643 104.868 159.541L100.535 157.938C99.6639 157.616 99.6639 156.384 100.535 156.062L104.868 154.459C105.142 154.357 105.357 154.142 105.459 153.868L107.062 149.535Z" fill="white"/>
<path d="M85.0656 161.451C85.3928 160.593 86.6072 160.593 86.9344 161.451L90.4278 170.614C90.5317 170.887 90.7496 171.1 91.0242 171.199L100.38 174.559C101.262 174.876 101.262 176.124 100.38 176.441L91.0242 179.801C90.7496 179.9 90.5317 180.113 90.4278 180.386L86.9344 189.549C86.6072 190.407 85.3928 190.407 85.0656 189.549L81.5722 180.386C81.4683 180.113 81.2504 179.9 80.9758 179.801L71.6205 176.441C70.7378 176.124 70.7378 174.876 71.6205 174.559L80.9758 171.199C81.2504 171.1 81.4683 170.887 81.5722 170.614L85.0656 161.451Z" fill="white"/>
<path d="M276.529 76.9327C276.779 75.9189 278.221 75.9189 278.471 76.9327L280.226 84.0427C280.315 84.4033 280.597 84.6849 280.957 84.7739L288.067 86.5291C289.081 86.7794 289.081 88.2206 288.067 88.4709L280.957 90.2261C280.597 90.3151 280.315 90.5967 280.226 90.9573L278.471 98.0673C278.221 99.0811 276.779 99.0811 276.529 98.0673L274.774 90.9573C274.685 90.5967 274.403 90.3151 274.043 90.2261L266.933 88.4709C265.919 88.2206 265.919 86.7794 266.933 86.5291L274.043 84.7739C274.403 84.6849 274.685 84.4033 274.774 84.0427L276.529 76.9327Z" fill="white"/>
<path d="M206.774 222.213L203.986 226.793" stroke="white" stroke-width="0.594465" stroke-miterlimit="10"/>
<path d="M228.038 235.152L225.257 239.735" stroke="white" stroke-width="0.594465" stroke-miterlimit="10"/>
<path d="M218.59 229.401L215.802 233.981" stroke="white" stroke-width="0.594465" stroke-miterlimit="10"/>
<path d="M220.957 230.837L218.166 235.423" stroke="white" stroke-width="0.594465" stroke-miterlimit="10"/>
<path d="M213.866 226.525L211.078 231.105" stroke="white" stroke-width="0.594465" stroke-miterlimit="10"/>
<path d="M209.135 223.646L206.347 228.225" stroke="white" stroke-width="0.594465" stroke-miterlimit="10"/>
<path d="M225.681 233.713L222.893 238.293" stroke="white" stroke-width="0.594465" stroke-miterlimit="10"/>
<path d="M216.223 227.965L213.435 232.544" stroke="white" stroke-width="0.594465" stroke-miterlimit="10"/>
<path d="M223.314 232.277L220.526 236.856" stroke="white" stroke-width="0.594465" stroke-miterlimit="10"/>
<path d="M211.498 225.089L208.711 229.668" stroke="white" stroke-width="0.594465" stroke-miterlimit="10"/>
<path d="M223.774 232.213L220.986 236.793" stroke="white" stroke-width="0.594465" stroke-miterlimit="10"/>
<path d="M245.038 245.152L242.257 249.735" stroke="white" stroke-width="0.594465" stroke-miterlimit="10"/>
<path d="M235.59 239.401L232.802 243.981" stroke="white" stroke-width="0.594465" stroke-miterlimit="10"/>
<path d="M237.957 240.837L235.166 245.423" stroke="white" stroke-width="0.594465" stroke-miterlimit="10"/>
<path d="M230.866 236.525L228.078 241.105" stroke="white" stroke-width="0.594465" stroke-miterlimit="10"/>
<path d="M226.135 233.646L223.347 238.225" stroke="white" stroke-width="0.594465" stroke-miterlimit="10"/>
<path d="M242.681 243.713L239.893 248.293" stroke="white" stroke-width="0.594465" stroke-miterlimit="10"/>
<path d="M233.223 237.965L230.435 242.544" stroke="white" stroke-width="0.594465" stroke-miterlimit="10"/>
<path d="M240.314 242.277L237.526 246.856" stroke="white" stroke-width="0.594465" stroke-miterlimit="10"/>
<path d="M228.498 235.089L225.711 239.668" stroke="white" stroke-width="0.594465" stroke-miterlimit="10"/>
<rect x="72" y="240" width="128" height="82" fill="#FC7F2D"/>
</g>
<rect x="46" y="250" width="105" height="38" rx="12" fill="#883CB7"/>
<path d="M79.146 274V264.84H82.4531C85.1699 264.84 86.7632 266.516 86.7632 269.392V269.404C86.7632 272.312 85.1826 274 82.4531 274H79.146ZM80.5679 272.775H82.2944C84.2114 272.775 85.3159 271.55 85.3159 269.423V269.411C85.3159 267.303 84.1924 266.065 82.2944 266.065H80.5679V272.775ZM88.5342 274V267.106H89.9116V268.147H90.0132C90.2607 267.417 90.9019 266.986 91.8223 266.986C92.0444 266.986 92.2856 267.018 92.4253 267.049V268.319C92.1777 268.268 91.9429 268.236 91.6826 268.236C90.6289 268.236 89.9116 268.884 89.9116 269.88V274H88.5342ZM95.5801 274.114C94.2661 274.114 93.2949 273.314 93.2949 272.064V272.051C93.2949 270.82 94.2217 270.103 95.8657 270.001L97.7319 269.893V269.284C97.7319 268.528 97.2559 268.109 96.3228 268.109C95.561 268.109 95.0596 268.389 94.8945 268.877L94.8882 268.903H93.5615L93.5679 268.858C93.7329 267.729 94.8184 266.973 96.3862 266.973C98.1191 266.973 99.0967 267.836 99.0967 269.284V274H97.7319V273.022H97.624C97.2178 273.721 96.4941 274.114 95.5801 274.114ZM94.666 272.007C94.666 272.642 95.2056 273.016 95.9482 273.016C96.9766 273.016 97.7319 272.343 97.7319 271.455V270.864L96.0498 270.972C95.0977 271.029 94.666 271.372 94.666 271.994V272.007ZM101.039 274V267.106H102.417V268.167H102.518C102.823 267.411 103.496 266.973 104.397 266.973C105.336 266.973 106.003 267.462 106.308 268.205H106.416C106.765 267.462 107.558 266.973 108.517 266.973C109.907 266.973 110.719 267.811 110.719 269.246V274H109.348V269.576C109.348 268.624 108.917 268.154 108.015 268.154C107.139 268.154 106.562 268.808 106.562 269.639V274H105.19V269.436C105.19 268.649 104.676 268.154 103.864 268.154C103.032 268.154 102.417 268.865 102.417 269.766V274H101.039ZM114.534 274.114C113.22 274.114 112.249 273.314 112.249 272.064V272.051C112.249 270.82 113.176 270.103 114.82 270.001L116.686 269.893V269.284C116.686 268.528 116.21 268.109 115.277 268.109C114.515 268.109 114.014 268.389 113.849 268.877L113.842 268.903H112.516L112.522 268.858C112.687 267.729 113.772 266.973 115.34 266.973C117.073 266.973 118.051 267.836 118.051 269.284V274H116.686V273.022H116.578C116.172 273.721 115.448 274.114 114.534 274.114ZM113.62 272.007C113.62 272.642 114.16 273.016 114.902 273.016C115.931 273.016 116.686 272.343 116.686 271.455V270.864L115.004 270.972C114.052 271.029 113.62 271.372 113.62 271.994V272.007Z" fill="white"/>
<rect x="0.5" y="203.5" width="104" height="37" rx="11.5" stroke="white"/>
<path d="M38.5225 227.222C36.4531 227.222 35.1265 226.175 34.9995 224.632L34.9932 224.55H36.3896L36.396 224.62C36.4722 225.451 37.3545 225.984 38.5796 225.984C39.7476 225.984 40.5791 225.4 40.5791 224.55V224.543C40.5791 223.839 40.084 223.382 38.8716 223.122L37.8687 222.906C36.0088 222.512 35.209 221.649 35.209 220.297V220.291C35.2153 218.71 36.5864 217.618 38.5288 217.618C40.4712 217.618 41.7407 218.716 41.8423 220.138L41.8486 220.227H40.4712L40.4585 220.145C40.3379 219.396 39.6206 218.85 38.5098 218.856C37.437 218.856 36.6436 219.357 36.6436 220.221V220.227C36.6436 220.906 37.126 221.351 38.313 221.604L39.3096 221.827C41.2329 222.239 42.02 223.014 42.02 224.372V224.378C42.02 226.13 40.6553 227.222 38.5225 227.222ZM46.6348 227.133C44.6226 227.133 43.3911 225.762 43.3911 223.534V223.521C43.3911 221.338 44.6162 219.973 46.6284 219.973C48.3613 219.973 49.396 220.951 49.5864 222.29V222.322L48.2661 222.328L48.2598 222.309C48.1074 221.63 47.5488 221.122 46.6348 221.122C45.4858 221.122 44.7939 222.036 44.7939 223.521V223.534C44.7939 225.058 45.4985 225.984 46.6348 225.984C47.498 225.984 48.0312 225.591 48.2534 224.848L48.2661 224.816H49.5864L49.5737 224.874C49.3262 226.213 48.3423 227.133 46.6348 227.133ZM51.8652 218.875C51.3892 218.875 51.002 218.488 51.002 218.018C51.002 217.542 51.3892 217.155 51.8652 217.155C52.335 217.155 52.7285 217.542 52.7285 218.018C52.7285 218.488 52.335 218.875 51.8652 218.875ZM51.1733 227V220.106H52.5444V227H51.1733ZM54.5312 223.94V222.677H58.7778V223.94H54.5312ZM60.9043 227V217.84H66.6235V219.065H62.3262V221.966H66.2617V223.166H62.3262V227H60.9043ZM69.0293 218.875C68.5532 218.875 68.166 218.488 68.166 218.018C68.166 217.542 68.5532 217.155 69.0293 217.155C69.499 217.155 69.8926 217.542 69.8926 218.018C69.8926 218.488 69.499 218.875 69.0293 218.875ZM68.3374 227V220.106H69.7085V227H68.3374Z" fill="#EBEBF5"/>
<rect x="220.5" y="35.5" width="104" height="37" rx="11.5" stroke="white"/>
<path d="M252.873 59L256.18 49.8403H257.716L261.023 59H259.525L258.7 56.5244H255.196L254.365 59H252.873ZM256.891 51.4463L255.577 55.3818H258.319L256.999 51.4463H256.891ZM264.978 59.1333C262.966 59.1333 261.734 57.7622 261.734 55.5342V55.5215C261.734 53.3379 262.959 51.9731 264.972 51.9731C266.705 51.9731 267.739 52.9507 267.93 54.29V54.3218L266.609 54.3281L266.603 54.3091C266.451 53.6299 265.892 53.1221 264.978 53.1221C263.829 53.1221 263.137 54.0361 263.137 55.5215V55.5342C263.137 57.0576 263.842 57.9844 264.978 57.9844C265.841 57.9844 266.375 57.5908 266.597 56.8481L266.609 56.8164H267.93L267.917 56.8735C267.669 58.2129 266.686 59.1333 264.978 59.1333ZM272.195 59.0444C270.678 59.0444 270.056 58.5112 270.056 57.1846V53.1919H268.977V52.1064H270.056V50.3672H271.459V52.1064H272.938V53.1919H271.459V56.8545C271.459 57.5972 271.738 57.9019 272.417 57.9019C272.627 57.9019 272.748 57.8955 272.938 57.8765V58.9746C272.716 59.0127 272.462 59.0444 272.195 59.0444ZM275.261 50.875C274.785 50.875 274.398 50.4878 274.398 50.0181C274.398 49.542 274.785 49.1548 275.261 49.1548C275.731 49.1548 276.125 49.542 276.125 50.0181C276.125 50.4878 275.731 50.875 275.261 50.875ZM274.569 59V52.1064H275.94V59H274.569ZM280.866 59.1333C278.841 59.1333 277.604 57.7812 277.604 55.5596V55.5469C277.604 53.3315 278.848 51.9731 280.866 51.9731C282.878 51.9731 284.123 53.3252 284.123 55.5469V55.5596C284.123 57.7812 282.885 59.1333 280.866 59.1333ZM280.866 57.9844C282.047 57.9844 282.72 57.083 282.72 55.5596V55.5469C282.72 54.0171 282.047 53.1221 280.866 53.1221C279.679 53.1221 279.013 54.0171 279.013 55.5469V55.5596C279.013 57.0894 279.679 57.9844 280.866 57.9844ZM285.767 59V52.1064H287.144V53.1538H287.246C287.582 52.4175 288.242 51.9731 289.245 51.9731C290.788 51.9731 291.638 52.8936 291.638 54.5376V59H290.267V54.8613C290.267 53.7188 289.791 53.1538 288.782 53.1538C287.772 53.1538 287.144 53.8457 287.144 54.9565V59H285.767Z" fill="#EBEBF5"/>
<defs>
<clipPath id="clip0_153_747">
<rect width="249" height="318" fill="white" transform="translate(60)"/>
</clipPath>
</defs>
</svg>
