<svg width="54" height="29" viewBox="0 0 54 29" fill="none" xmlns="http://www.w3.org/2000/svg">
<g clip-path="url(#clip0_47_1367)">
<path d="M0.316022 13.555H0.713812C1.42983 13.555 1.87845 13.2032 1.9779 12.4664L2.84199 6.28215H1.56243L1.87845 4.05378H3.15801L3.25746 3.35032C3.52707 1.30672 4.79116 0.436296 6.85304 0.436296H7.9337L7.61768 2.66467H6.90166C6.17017 2.66467 5.73702 3.0164 5.61989 3.75325L5.58674 4.05378H7.43425L7.11823 6.28215H5.27293L4.34033 13.0029C4.09061 14.7794 2.94365 15.7833 0.746961 15.7833H0L0.316022 13.555ZM8.9326 4.05601H11.3613L10.1635 12.6022H7.73481L8.9326 4.05601ZM8.9989 1.37573C9.11602 0.587673 9.79668 0.00219727 10.579 0.00219727C11.5271 0.00219727 12.126 0.690076 12.0088 1.62728C11.8917 2.43092 11.211 3.00082 10.4287 3.00082C9.48066 3.00082 8.88177 2.29735 8.9989 1.37573Z" fill="white" fill-opacity="0.48"/>
<path d="M11.9337 10.641C12.4994 10.4229 13.032 10.1557 13.547 9.85298C12.8486 8.49503 12.5989 6.71857 12.8641 4.70836C13.2796 1.75872 14.7779 0.333984 16.7403 0.333984C18.9193 0.333984 20.1171 1.94349 19.7171 4.70836C19.4519 6.585 18.4862 8.39486 17.0564 9.85298C17.4895 10.1045 17.9867 10.2381 18.5525 10.2381H19.0851L18.7359 12.6H18.0707C16.8243 12.6 15.7591 12.2327 14.9105 11.5449C14.1945 11.9812 13.4144 12.3485 12.5989 12.6L11.9337 10.6388V10.641ZM15.6265 7.99415C16.4751 6.95454 17.0409 5.74797 17.2243 4.47462C17.3901 3.31925 17.1425 2.69815 16.6099 2.69815C16.0773 2.69815 15.5956 3.36822 15.3945 4.77515C15.2287 5.9973 15.3127 7.10592 15.6265 7.99193V7.99415Z" fill="white" fill-opacity="0.48"/>
<path d="M21.3193 4.05607H23.7481L23.6486 4.84412C24.347 4.18963 25.1956 3.85571 26.1613 3.85571C27.3414 3.85571 28.19 4.35882 28.59 5.26486C29.3878 4.34324 30.4354 3.85571 31.6508 3.85571C33.5138 3.85571 34.5613 5.09568 34.2784 7.29066L33.9624 9.55242C33.9138 10.0221 34.1127 10.2403 34.5459 10.2403H34.7293L34.3801 12.6022H33.6972C31.9845 12.6022 31.2354 11.7652 31.4519 10.0889L31.7856 7.75815C31.9182 6.82094 31.4188 6.21765 30.5039 6.21765C29.5889 6.21765 28.9392 6.76974 28.7403 7.62458L28.042 12.6022H25.6133L26.2961 7.76037C26.4287 6.82317 25.9315 6.21988 25.0166 6.21988C24.1503 6.21988 23.4696 6.75638 23.2707 7.57783L22.5547 12.6045H20.126L21.3238 4.05829L21.3193 4.05607Z" fill="white" fill-opacity="0.48"/>
<path d="M1.92707 26.7716H2.32486C3.04088 26.7716 3.4895 26.4198 3.58895 25.683L4.45304 19.4987H3.17348L3.4895 17.2704H4.76906L4.86851 16.5669C5.1337 14.5233 6.39779 13.6507 8.46188 13.6507H9.54254L9.22652 15.879H8.51049C7.779 15.879 7.34585 16.2308 7.22873 16.9676L7.19558 17.2681H9.04309L8.72707 19.4965H6.88177L5.94917 26.2172C5.69945 27.9937 4.55248 28.9977 2.3558 28.9977H1.60663L1.92265 26.7693L1.92707 26.7716ZM10.5436 17.2704H12.9724L11.7746 25.8165H9.34585L10.5436 17.2704ZM10.6099 14.5901C10.7271 13.802 11.4077 13.2166 12.1901 13.2166C13.1381 13.2166 13.737 13.9044 13.6199 14.8416C13.5028 15.6453 12.8221 16.2152 12.0398 16.2152C11.0917 16.2152 10.4928 15.5117 10.6099 14.5901Z" fill="white" fill-opacity="0.48"/>
<path d="M14.9414 17.2704H17.3702L17.253 18.0919C18.0022 17.4218 18.9171 17.0701 19.9315 17.0701C21.9116 17.0701 23.0254 18.3434 22.7249 20.5896L22.4265 22.769C22.3602 23.2387 22.5591 23.4569 23.01 23.4569H23.1757L22.8442 25.8188H22.1613C20.4486 25.8188 19.6818 24.9818 19.916 23.3055L20.2321 21.1439C20.3646 20.1043 19.8166 19.4342 18.8 19.4342C17.7834 19.4342 17.1028 20.0197 16.8553 20.9258L16.1724 25.8188H13.7437L14.9414 17.2726V17.2704Z" fill="white" fill-opacity="0.48"/>
<path d="M24.1459 21.2085C24.495 18.7286 26.3757 17.0701 28.537 17.0701C29.7348 17.0701 30.6497 17.4886 31.2663 18.2099L31.8807 13.7532H34.3094L33.0608 22.7691C33.0122 23.2388 33.211 23.4569 33.6442 23.4569H33.8099L33.4762 25.8189H32.7934C31.6796 25.8189 30.9635 25.4672 30.6807 24.7459C29.9492 25.5495 29.0166 26.0192 27.9536 26.0192C25.3746 26.0192 23.7613 23.9422 24.1436 21.2108L24.1459 21.2085ZM30.7823 21.6783C30.9657 20.3893 30.1503 19.4321 28.853 19.4321C27.7392 19.4321 26.7912 20.2691 26.6564 21.3755C26.4729 22.6822 27.3061 23.6551 28.6033 23.6551C29.684 23.6551 30.632 22.8002 30.7823 21.6783Z" fill="white" fill-opacity="0.48"/>
<path d="M34.8972 21.2085C35.2464 18.6952 37.326 17.0701 39.7724 17.0701C42.5834 17.0701 44.4287 18.9801 44.0309 21.5936C43.9978 21.8273 43.947 22.1145 43.8652 22.3304H37.3945C37.5779 23.3189 38.2917 23.9221 39.3746 23.9221C40.1392 23.9221 40.7558 23.5882 41.105 23.1185H43.6995C43.0166 24.8438 41.3702 26.0169 39.1912 26.0169C36.347 26.0169 34.5171 23.94 34.8994 21.2085H34.8972ZM37.5757 20.7054H41.5691C41.4365 19.7682 40.7204 19.1649 39.6906 19.1649C38.7425 19.1649 37.9448 19.7682 37.5779 20.7054H37.5757Z" fill="white" fill-opacity="0.48"/>
<path d="M46.1812 19.165C45.7481 18.7798 45.516 18.2255 45.6155 17.6222C45.7326 16.7674 46.3978 16.1975 47.295 16.1975C48.1923 16.1975 48.7912 16.7518 48.842 17.5221L54 18.1254L53.916 18.7131C52.8177 20.002 52.1702 21.1418 52.0354 22.0968C51.9182 22.9672 52.3182 23.4547 53.1668 23.4547H53.516L53.1845 25.8167H52.6011C50.2387 25.8167 49.158 24.4432 49.5072 22.197C49.6066 21.4935 49.8564 20.8056 50.305 20.1022L48.2917 19.835L46.3293 25.8167H43.9337L46.179 19.165H46.1812Z" fill="white" fill-opacity="0.48"/>
<path d="M46.0553 7.56452L43.2884 8.82897L43.3304 8.1923L45.9094 9.82851L44.5768 11.723L42.2453 10.0623L42.5635 9.89752L42.4464 12.6557L40.1193 12.5021L40.3403 9.7506L40.6564 9.95763L38.1083 11.2978L37.074 9.24749L39.8232 7.963L39.7812 8.59968L37.2221 6.9835L38.5171 5.04453L40.8884 6.72972L40.5282 6.89223L40.6674 4.13403L42.9945 4.28764L42.7536 7.03915L42.4597 6.83435L44.9879 5.47195L46.0619 7.56675L46.0553 7.56452Z" fill="white" fill-opacity="0.48"/>
</g>
<defs>
<clipPath id="clip0_47_1367">
<rect width="54" height="29" fill="white"/>
</clipPath>
</defs>
</svg>
