<svg width="110" height="109" viewBox="0 0 110 109" fill="none" xmlns="http://www.w3.org/2000/svg">
<ellipse cx="55" cy="54.5" rx="55" ry="54.5" fill="#DD7937"/>
<path d="M48.0586 41.3017C46.0357 49.3433 44.0228 57.3779 41.9999 65.4194C45.4691 65.4587 48.9369 65.5063 52.4062 65.5455" stroke="#1A0E3D" stroke-width="3.42182" stroke-miterlimit="10"/>
<path opacity="0.43" d="M82.9427 70.6202C90.6431 72.6828 98.5575 68.1126 100.62 60.4122C102.683 52.7119 98.1126 44.7974 90.4122 42.7348C82.7119 40.6721 74.7974 45.2424 72.7347 52.9427C70.6721 60.6431 75.2423 68.5575 82.9427 70.6202Z" fill="#ED1E79"/>
<path opacity="0.43" d="M15.9427 78.6202C23.6431 80.6828 31.5575 76.1126 33.6202 68.4122C35.6828 60.7119 31.1126 52.7974 23.4122 50.7348C15.7119 48.6721 7.79738 53.2424 5.73473 60.9427C3.67209 68.6431 8.24235 76.5575 15.9427 78.6202Z" fill="#ED1E79"/>
<path d="M26.8086 58.755C30.0639 59.3382 33.1757 57.172 33.7589 53.9166C34.3421 50.6613 32.1758 47.5495 28.9205 46.9663C25.6651 46.3832 22.5534 48.5494 21.9702 51.8047C21.387 55.0601 23.5532 58.1719 26.8086 58.755Z" fill="#1A0E3D"/>
<path d="M72.5561 55.6525C75.8115 56.2357 78.9232 54.0695 79.5064 50.8141C80.0896 47.5587 77.9234 44.447 74.668 43.8638C71.4127 43.2806 68.3009 45.4469 67.7177 48.7022C67.1346 51.9576 69.3008 55.0693 72.5561 55.6525Z" fill="#1A0E3D"/>
<path d="M76.2295 29.6874L64.1733 31.6732C61.8685 32.0528 60.3078 34.229 60.6874 36.5339C61.067 38.8387 63.2433 40.3994 65.5481 40.0198L77.6043 38.034C79.9092 37.6543 81.4699 35.4781 81.0902 33.1733C80.7106 30.8684 78.5344 29.3077 76.2295 29.6874Z" fill="#1A0E3D"/>
<path d="M32.6526 34.2773L20.2554 33.5763C17.8854 33.4423 15.8555 35.2549 15.7214 37.6249C15.5874 39.995 17.4001 42.0249 19.7701 42.1589L32.1673 42.86C34.5373 42.994 36.5672 41.1814 36.7012 38.8113C36.8353 36.4413 35.0226 34.4113 32.6526 34.2773Z" fill="#1A0E3D"/>
<path d="M45.7145 75.3462C49.7332 81.0025 57.2226 82.8569 63.0867 79.9097C69.4941 76.6948 72.3875 68.5485 69.1828 61.6475" stroke="#1A0E3D" stroke-width="3.42182" stroke-miterlimit="10"/>
</svg>
