<svg width="40" height="27" viewBox="0 0 40 27" fill="none" xmlns="http://www.w3.org/2000/svg">
<path fill-rule="evenodd" clip-rule="evenodd" d="M40.0002 10.1786C40.0002 15.2359 35.8096 19.4397 30.7483 19.4397C25.6961 19.4397 21.4965 15.2359 21.4965 10.1786C21.4965 5.11222 25.687 0.91748 30.7392 0.91748C35.8005 0.91748 40.0002 5.11222 40.0002 10.1786ZM28.9342 14.1736C29.17 14.4914 29.424 14.6185 29.7324 14.6185C30.0408 14.6185 30.3038 14.4732 30.4943 14.1736L34.7574 7.45474C34.8662 7.26407 34.9842 7.05524 34.9842 6.85549C34.9842 6.42875 34.6123 6.15637 34.2132 6.15637C33.9774 6.15637 33.7415 6.30164 33.5692 6.57402L29.6961 12.8026L27.8548 10.4237C27.6281 10.1241 27.4285 10.0424 27.1655 10.0424C26.7573 10.0424 26.4398 10.3784 26.4398 10.7869C26.4398 10.9957 26.5215 11.1955 26.6575 11.3771L28.9342 14.1736ZM16.1183 6.70572C17.8272 6.70572 19.4377 6.96486 20.9265 7.40125C20.7157 7.98274 20.5582 8.58976 20.4597 9.21642C19.0967 8.76716 17.6362 8.49192 16.1183 8.49192C8.67567 8.49192 2.65609 15.0489 2.65609 16.3942C2.65609 17.9882 8.67567 24.2965 16.1183 24.2965C20.4665 24.2965 24.344 22.1235 26.8056 20.006C27.508 20.2621 28.2479 20.4403 29.0147 20.5302C26.3579 23.239 21.7818 26.0826 16.1183 26.0826C7.10584 26.0826 0.679688 18.7004 0.679688 16.3942C0.679688 14.0766 7.11714 6.70572 16.1183 6.70572ZM16.1183 10.0633C17.7648 10.0633 19.2599 10.677 20.3838 11.6935C20.5658 13.624 21.3049 15.3922 22.4386 16.8352C22.2102 20.0845 19.4798 22.7251 16.1183 22.7251C12.5834 22.7251 9.78246 19.8422 9.75988 16.3942C9.74859 12.8557 12.5834 10.0633 16.1183 10.0633ZM16.1183 18.4969C14.9437 18.4969 13.9951 17.5473 13.9951 16.3942C13.9951 15.2298 14.9437 14.2914 16.1183 14.2914C17.2816 14.2914 18.2302 15.2298 18.2302 16.3942C18.2302 17.5473 17.2816 18.4969 16.1183 18.4969Z" fill="#ECECEC"/>
</svg>
